<?xml version="1.0" encoding="utf-8"?>
<!-- Generator: Adobe Illustrator 25.4.1, SVG Export Plug-In . SVG Version: 6.00 Build 0)  -->
<svg version="1.1" id="Layer_1" xmlns="http://www.w3.org/2000/svg" xmlns:xlink="http://www.w3.org/1999/xlink" x="0px" y="0px"
	 viewBox="0 0 220 220" style="enable-background:new 0 0 220 220;" xml:space="preserve">
<style type="text/css">
	.st0{fill:#373A36;}
	.st1{fill:#FFFFFF;}
</style>
<path class="st0" d="M45,14.8c1.6-0.5,3.3-1.7,4.9-1c-0.5,1.3-0.8,2.6-0.9,3.8c-0.2,0.7-0.3,1.4-0.4,2.2c-0.5,2.5-1.4,4.7-2.5,7
	C45,29,43.3,31.1,40.9,32c-1.7,0.1-3.6,0.5-4.9-1c-1.5-1.3-1.3-3.4-1.2-5c0.6-1.6,1.4-3.1,2.3-4.5c1.7-2.5,3.9-4.4,6.5-5.8
	C44,15.2,44.5,15,45,14.8z"/>
<path class="st0" d="M170.4,13.4c2.6,0.2,5,1.3,7.2,2.6c2.4,1.4,4.2,3.4,5.7,5.5c0.1,0.2,0.3,0.6,0.4,0.8c1.1,1.6,1.8,3.4,1.8,5.3
	c-0.2,1.8-1.1,3.7-3,4.2c-1.2,0.1-2.3,0.1-3.4,0c-3.7-1.8-5.7-5.7-6.9-9.6c-0.3-1-0.5-2-0.8-3c-0.1-0.7-0.1-1.5-0.3-2.2
	c-0.1-0.6-0.1-1.3-0.4-1.9C170.6,14.8,170.5,14.1,170.4,13.4z"/>
<path class="st0" d="M191.8,19.4c2,2.3,3.4,4.9,4.4,7.8c0.9,2.3,1.7,4.6,1.6,7c0,1.9,0.2,3.9-0.8,5.7c-0.4,1-1.4,1.7-2.4,2.1
	c-0.3,0-0.8-0.1-1.1-0.1c-0.4-0.1-0.8-0.3-1.2-0.4c-2-1.3-3.3-3.4-3.9-5.5c-0.2-0.8-0.2-1.7-0.3-2.5c-0.4-1-0.3-2.2-0.3-3.3
	c0-1.1-0.1-2.2,0.3-3.3C188.4,24.2,190.1,21.7,191.8,19.4z"/>
<path class="st0" d="M27.9,19.9c0.3,0,0.5,0,0.8,0c1.1,1.6,2.2,3.2,2.9,4.9c0.1,0.5,0.2,1,0.3,1.5c0.4,1.3,0.2,2.7,0.3,3.9
	c-0.1,1.3,0.2,2.7-0.3,3.9c-0.1,0.7-0.1,1.5-0.3,2.2c-1,2.4-2.4,4.9-5,5.6c-0.3,0-0.8,0-1.1,0c-1.7-0.6-2.7-2.1-3-3.7
	c-0.8-4.3,0.2-8.8,2.2-12.7c0.1-0.2,0.3-0.6,0.4-0.7C25.7,23.1,26.8,21.5,27.9,19.9z"/>
<path class="st0" d="M33.5,36.9c1.5-1.3,3.4-1.9,5.2-2.4c2.2-0.2,4.1,1,5.8,2.2c0.7,0.5,1.4,1,2,1.5C44.4,41,42.1,44,39,45.8
	c-1.7,1-3.6,1.6-5.6,1.2c-2-0.8-3.1-3.1-3-5.1C30.7,39.8,31.9,38,33.5,36.9z"/>
<path class="st0" d="M176.1,36.3c1.4-1,3.1-1.9,4.8-1.8c3.3,0.6,6.4,2.3,8.1,5.1c1.1,2.3,0.6,5.2-1.4,6.8c-1,0.9-2.4,0.5-3.6,0.6
	c-2.4-0.8-4.6-2-6.3-3.8c-1.6-1.5-3.1-3.2-4.3-5c0.7-0.5,1.3-1,1.9-1.5C175.6,36.6,175.9,36.4,176.1,36.3z"/>
<path class="st0" d="M16.7,38.7c0.4-0.7,0.3-1.8,1.1-2.2c1,0.7,1.8,1.6,2.5,2.6c1.4,1.9,2.4,4,3,6.3c0.1,0.5,0.2,1,0.4,1.5
	c0.1,2.1,0,4.1,0.1,6.3c-0.1,0.1-0.3,0.2-0.4,0.2c-0.3,2.1-1.4,3.9-3,5.3c-0.9,0.6-2.1,0.7-3,0c-1.2-0.8-2-2.2-2.7-3.4
	c-0.1-0.4-0.3-0.7-0.4-1.1c-0.4-0.8-0.3-1.8-0.7-2.6c-0.2-1.3,0.4-2.6,0.4-4c0.4-1.6,0.7-3.2,1.2-4.7C15.8,41.5,16.2,40.1,16.7,38.7
	z"/>
<path class="st0" d="M200.6,38.4c0.5-0.9,1.3-1.4,2.1-1.9c0.2,0.7,0.5,1.5,0.8,2.2c0.5,1.6,1,3.1,1.6,4.5c0,0.2,0.1,0.7,0.1,0.9
	c0.2,0.6,0.4,1.1,0.6,1.7c0.4,2.6,1.3,5.1,0.3,7.6c-0.1,0.4-0.3,0.7-0.4,1.1c-0.2,0.5-0.5,1-0.7,1.5c-1,1.5-2.3,3.6-4.3,3.1
	c-2.5-1.2-3.4-3.8-4.1-6.3c0-1.8-0.1-3.6,0-5.4c0.2-0.5,0.3-1,0.4-1.5c0.1-0.5,0.2-1,0.4-1.4C198,42.2,198.9,39.9,200.6,38.4z"/>
<path class="st0" d="M30.6,48.8c1.3-0.1,2.6-0.1,3.8,0c1.6,0.4,3.1,1,4.5,1.6c0,0.2,0,0.5,0,0.6c-1.4,2.4-2.8,4.6-4.4,6.8
	c-1.4,1.4-2.9,2.7-4.6,3.4c-0.5,0.2-1,0.4-1.5,0.6c-0.8,0-1.6,0.1-2.4,0c-0.5-0.4-0.9-0.8-1.4-1.3c-0.2-0.3-0.3-0.6-0.5-1
	c0-1-0.7-2-0.1-3c0.1-2.5,1.8-4.6,3.6-6.1C28.5,49.9,29.5,49.1,30.6,48.8z"/>
<path class="st0" d="M180.9,50.5c1.6-0.5,3-1.3,4.6-1.6c1.3-0.1,2.7-0.1,3.9,0c2,0.7,3.5,2.1,4.8,3.6c0.8,1.1,1.4,2.3,1.7,3.5
	c0.5,1.2,0.2,2.6-0.2,3.7c-0.4,0.9-0.9,1.8-1.9,2.2c-0.8,0-1.6,0-2.4,0c-2.9-1-5.3-3-7.1-5.4C183.4,54.4,181.8,52.7,180.9,50.5z"/>
<path class="st0" d="M10.1,56.5c0.5-0.6,1.4-0.1,2,0.2c3.3,1.5,5.1,4.8,6.2,8c0.8,2.3,1,4.7,0.8,7.2c-0.2,0.5-0.3,1-0.4,1.6
	c-0.7,1.6-1.5,3.2-3,4.1c-1.4,0.4-2.6-0.6-3.5-1.4c-2-1.8-3.2-4.2-3.6-6.8c-0.4-1.1,0.1-2.2,0.2-3.3c0.2-2.3,0.7-4.4,0.8-6.6
	C10,58.6,9.6,57.5,10.1,56.5z"/>
<path class="st0" d="M208.8,56.3c0.4-0.1,1.2-0.4,1.4,0.2c0.1,1.9,0.5,3.6,0.7,5.5c0.1,0.7,0,1.5,0.4,2.2c-0.1,1.6,0.6,3.2,0.4,4.7
	c-0.5,3.3-2.3,6.2-4.9,8.2c-0.7,0.5-1.6,0.6-2.3,0.4c-1.3-0.8-2-2.2-2.7-3.4c-0.2-0.9-0.4-1.8-0.7-2.6c-0.3-2.7,0.2-5.4,1.2-7.9
	C203.5,60.5,205.7,57.6,208.8,56.3z"/>
<path class="st0" d="M27.1,63.8c1.6-0.1,3.2-0.1,4.7,0c0.4,0.2,0.9,0.3,1.3,0.4c0.1,0.1,0.3,0.3,0.5,0.4c0,1.5-0.4,3-0.9,4.3
	c-1,2.3-2.2,4.5-4,6.2c-1.6,1.8-3.7,3.5-6.2,3.2c-1.4,0-1.8-1.4-2.3-2.4c-0.1-1-0.6-2-0.4-3c0.5-0.9,0.3-2.1,0.9-3
	c0.8-1.8,1.8-3.4,3.4-4.5C25.1,64.8,26.1,64.3,27.1,63.8z"/>
<path class="st0" d="M188.1,63.8c2,0,3.9-0.3,5.8,0.4c2.6,1.3,4.6,3.5,5.5,6.2c0.3,0.7,0.4,1.5,0.7,2.2c0.3,2-0.4,4.2-1.9,5.6
	c-1.4,0.2-2.9,0.3-4-0.6c-3.9-2.5-6.7-6.6-7.6-11.1c-0.2-0.6-0.3-1.3-0.3-1.9C187,64.3,187.6,64,188.1,63.8z"/>
<path class="st0" d="M6.2,77.6c0.1-0.6,0.1-1.1,0.2-1.7c1.9,0.6,3.7,1,5.3,2.3c1.9,1.2,3.1,3.3,3.9,5.2c0.4,0.8,0.7,1.7,1,2.6
	c0.2,0.7,0.5,1.4,0.6,2.2c0,2.2,0.3,4.4-0.8,6.4c-0.5,0.6-1.1,1.1-1.6,1.6c-0.4,0.1-0.7,0.3-1.1,0.5c-0.5-0.1-1-0.3-1.6-0.4
	c-2.9-1.6-4.3-4.7-5.3-7.8c-0.2-0.6-0.3-1.2-0.3-1.8c-0.6-1.5-0.2-3.2-0.3-4.7C5.7,80.5,5.8,79,6.2,77.6z"/>
<path class="st0" d="M205.2,81.9c1.7-3.3,5.2-5.3,8.8-5.9c0.4,1,0.1,2.1,0.2,3.1c-0.1,1.5,0.2,3-0.3,4.3c-0.1,1.2,0.1,2.5-0.3,3.5
	c-0.1,0.6-0.2,1.2-0.4,1.8c-0.2,0.4-0.3,0.7-0.4,1.1c-0.1,0.2-0.2,0.6-0.2,0.8c-1.5,2.5-3.1,5.5-6.3,5.9c-2.3-1-3.7-3.4-3.4-5.9
	C202.5,87.5,203.8,84.7,205.2,81.9z"/>
<path class="st0" d="M21.3,83c2.7-2.6,6.4-4.3,10.1-4.2c-0.8,3.6-1.4,7.5-3.1,10.8c-0.7,1.5-1.9,2.8-2.9,4c-0.8,0.7-1.7,1.3-2.6,1.9
	c-1.6,0.4-2.6-1-3.4-2.1C17.8,90,18.6,85.6,21.3,83z"/>
<path class="st0" d="M190.3,85.9c-0.6-2.4-1.6-4.8-1.3-7.3c0.9,0.2,1.9,0.4,2.9,0.5c3.3,0.9,6.3,2.8,8.3,5.5
	c0.2,0.4,0.5,0.7,0.7,1.1c0.1,0.4,0.2,0.7,0.4,1.1c0.5,1.5,0.2,3.2,0.2,4.6c-0.5,1.9-1.8,4.5-4.1,4c-2.3-1.2-3.8-3.3-5.1-5.4
	C191.3,88.7,190.6,87.3,190.3,85.9z"/>
<path class="st0" d="M29.4,93.8c0.6-0.1,1.2-0.2,1.8-0.3c-0.1,1.6-0.5,3.1-0.4,4.6c-0.5,1.7-0.2,3.4-0.4,5.1
	c-0.5,2.8-1.2,5.8-3.5,7.6c-0.6,0.2-1.2,0.5-1.7,0.8c-0.8,0-1.6-0.3-2.4-0.4c-2.6-1.9-3.3-5.5-2.4-8.4c0.6-3.4,3.2-5.9,5.8-7.8
	C27.2,94.7,28.3,94.1,29.4,93.8z"/>
<path class="st0" d="M188.9,93.6c1.8,0,3.4,0.7,4.9,1.6c1,0.5,1.7,1.4,2.7,2c1.6,1.9,3.1,4,3.4,6.5c0,1.9,0.3,3.7-0.6,5.4
	c-0.3,0.5-0.7,1-1,1.5c-0.3,0.2-0.7,0.5-1,0.7c-0.4,0.1-0.8,0.2-1.2,0.4c-0.3,0-0.9,0-1.2,0c-2.1-0.7-3.5-2.6-4.3-4.5
	c-0.1-0.5-0.2-1-0.4-1.5c-0.6-2.2-0.7-4.5-0.7-6.8C189.1,97.2,189.4,95.3,188.9,93.6z"/>
<path class="st0" d="M210.6,97.1c1.3-0.4,2.7-0.2,3.9-0.2c-0.1,1.9-0.7,3.7-1.1,5.6c-0.3,1.4-0.8,2.7-1.1,4c-1,3.2-3.3,5.9-6.1,7.7
	c-1.2,0.8-2.6,0.8-3.9,0.7c-0.4-0.4-0.8-0.8-1.2-1.2c-0.1-0.5-0.2-0.9-0.5-1.4c0-1.3,0-2.5,0-3.7c0.7-2.5,1.6-4.9,3.2-7
	C205.4,99.3,207.8,97.6,210.6,97.1z"/>
<path class="st0" d="M5.4,96.9c1.5,0,3-0.2,4.4,0.2c2.6,0.7,4.9,2.3,6.3,4.5c1.7,2,2.4,4.3,3.2,6.7c0,1.5,0,3.1,0,4.5
	c-0.4,0.8-0.9,1.6-1.6,2.2c-0.9,0.1-1.7,0-2.6,0.1c-3.4-1.4-5.8-4.2-7.2-7.6c-0.3-1.3-0.8-2.5-1.1-3.7c-0.1-0.5-0.2-1-0.4-1.5
	c-0.2-0.6-0.3-1.2-0.4-1.8C5.8,99.3,5.8,98.1,5.4,96.9z"/>
<path class="st0" d="M32.3,108.4c0.4-0.2,0.9-0.5,1.3-0.7c0,1.6,0.6,3.2,0.5,4.7c0.3,0.7,0.3,1.4,0.4,2.2c0.2,0.6,0.3,1.1,0.3,1.7
	c-0.1,1.2,0.7,2.5,0.1,3.6c0,2.9-1.1,6.1-3.7,7.5c-1,0.1-2.4,0.4-3.2-0.5c-1.7-1.3-2.2-3.4-2.6-5.4c-0.3-1.4-0.4-3,0-4.3
	c0.1-1.1,0.3-2.2,1-3.1c1-1.4,1.8-3,3.3-3.7C30.4,109.6,31.3,108.9,32.3,108.4z"/>
<path class="st0" d="M186.5,107.7c3.6,1.8,7.5,4.7,8.2,9c0.4,1.7,0.4,3.4,0,5c-0.2,2.3-1.4,4.4-3.3,5.6c-1,0-2.1,0.2-2.9-0.3
	c-1.7-1.1-2.6-3.1-3-5c-0.4-1.2-0.2-2.4-0.3-3.5c0-1.1-0.2-2.2,0.3-3.2C185.8,112.8,186.6,110.3,186.5,107.7z"/>
<path class="st0" d="M9,117.3c1.9-0.7,3.9-0.5,5.9-0.5c1,0.2,2,0.5,3,0.8c2.8,1.3,5,3.5,6.5,6.2c0.8,1.6,1.7,3.3,1.5,5.1
	c0.1,0.9-0.5,1.7-0.8,2.6c-1.4,1.4-3.4,1.6-5.1,0.8c-0.2-0.1-0.6-0.3-0.7-0.3c-1.9-1-3.4-2.6-4.9-4.1C11.9,124.7,10.7,120.8,9,117.3
	z"/>
<path class="st0" d="M200.8,118.4c3.2-1.8,6.9-2.1,10.3-1.1c-1.4,3.3-2.7,6.6-4.5,9.6c-1.8,2.6-4.3,4.9-7.4,5.8
	c-1.5,0.4-3-0.1-4-1.2c-1.3-2.2-0.8-4.7,0.3-6.8C196.6,122.2,198.4,120,200.8,118.4z"/>
<path class="st0" d="M32.9,130.8c1.3-3.4,3.1-6.6,5.8-8.9c0.4,0.9,0.8,1.8,1.2,2.7c1.3,2.3,2.3,4.7,3,7.3c0,0.5,0,1,0,1.5
	c0.1,0.2,0.3,0.5,0.4,0.7c0,0.9,0,1.8,0,2.8c-0.5,1.1-0.3,2.4-0.8,3.4c-0.3,0.4-0.6,0.8-0.7,1.2c-0.5,0.3-1,0.6-1.4,0.9
	c-1.5-0.4-3-0.9-4-2c-1.1-1-1.7-2.3-2.5-3.4c-0.1-0.4-0.3-0.9-0.4-1.3c-0.2-0.4-0.3-0.7-0.5-1.1C32.8,133.3,32.8,132,32.9,130.8z"/>
<path class="st0" d="M180.5,123.8c0.3-0.7,0.7-1.4,1.2-2c2,2.4,4.2,4.7,5.1,7.8c0.1,0.4,0.3,0.7,0.4,1.1c0,0.8,0.1,1.5,0.4,2.3
	c-0.3,0.6-0.4,1.2-0.4,1.9c-0.1,0.4-0.3,0.8-0.4,1.2c-1.2,2.7-3.3,5.2-6.1,6.1c-0.1,0-0.4,0-0.6,0.1c-0.6-0.4-1.2-0.7-1.8-1.1
	c-0.4-0.9-0.8-1.7-1.1-2.7c-0.1-1-0.1-2-0.4-3c0.4-1.2,0.3-2.4,0.4-3.5c0.4-1.5,0.9-2.9,1.4-4.2c0.1-0.2,0.3-0.6,0.4-0.7
	C179.4,125.9,180,124.9,180.5,123.8z"/>
<path class="st0" d="M21.4,134.6c1.6-0.1,3.2,0,4.7,0c1.2,0.5,2.3,0.9,3.4,1.5c1.5,1.2,3,2.3,4,3.7c1.2,1.5,2.5,3.2,2.6,5.1
	c0.7,1-0.2,2-0.5,3c-2,1.4-4.4,0.9-6.6,0.4c-1-0.3-2-0.8-2.9-1.3c-1.6-0.9-3-2.1-4.1-3.4c-0.6-1-1.5-1.7-2.1-2.7
	c-1.1-1.4-2.3-2.7-3.2-4.2C18.2,135.7,19.8,135.3,21.4,134.6z"/>
<path class="st0" d="M184.5,143.1c2-3.8,5.2-7.1,9.4-8.5c1.6,0,3.2-0.1,4.7,0c0.4,0.2,0.8,0.3,1.1,0.5c1.3,0.4,2.6,0.9,3.5,1.8
	c-1,1.4-2,2.9-3.2,4.1c-1.7,2.6-3.9,4.7-6.6,6.3c-2.3,1.3-4.9,1.7-7.6,1.4c-0.8-0.3-1.7-0.9-2-1.7
	C184,145.8,183.7,144.3,184.5,143.1z"/>
<path class="st0" d="M80.9,140.1c18.8,0,37.6,0,56.5,0c0.1,0.2,0.3,0.5,0.5,0.6c-18.9,0.1-37.9,0-56.9,0.1L80.9,140.1z"/>
<path class="st0" d="M167.9,142.4c1.4-0.4,2.8-0.7,4.1-1.1c-0.3,1.1-0.7,2.1-1,3.2c-0.3,1.2-0.7,2.4-1.1,3.6
	c-0.5,1.9-1.2,3.6-1.7,5.5c1.9,3.4,4.5,6.3,6.3,9.8c-0.7,0.1-1.4,0.2-2.1,0.4c-0.5,0.1-1,0.2-1.5,0.4c-0.5,0.1-1,0.2-1.5,0.4
	c-2.5,0.6-5,1.2-7.4,1.9c-0.1-0.7-0.1-1.3-0.3-1.9c-0.3-4.7-0.9-9.5-1.3-14.3c-2.2-1.1-4.2-2.4-6.3-3.4c-0.4-0.2-0.9-0.4-1-0.9
	c3.9-0.9,7.8-1.9,11.6-2.8c0.5-0.1,1-0.3,1.5-0.4C167,142.6,167.4,142.5,167.9,142.4z"/>
<path class="st0" d="M47.7,141.4c0.7,0.2,1.5,0.4,2.2,0.6c1.4,0.3,2.7,0.7,4,1.1c4.2,1.2,8.5,2.2,12.7,3.5c-2.6,1.6-5.2,3-7.7,4.6
	c-0.4,4.1-0.6,8.3-1.1,12.3c-0.1,1.8-0.2,3.5-0.2,5.3c-1,0.1-2-0.3-3-0.6c-0.9-0.3-1.7-0.5-2.6-0.7c-2.3-0.7-4.6-1.3-6.9-2l-0.1-0.3
	c1.5-2.5,3-4.9,4.5-7.3c0.6-1.1,1.4-2.1,1.9-3.2c-0.6-2.6-1.5-5.1-2.1-7.7c-0.2-0.5-0.3-1-0.4-1.4C48.5,144.4,48,142.9,47.7,141.4z"
	/>
<path class="st0" d="M86.3,144.1c0-0.2,0.1-0.6,0.1-0.8c15.3,0,30.6,0,45.9,0c0,0.2,0.1,0.6,0.1,0.8C117,144,101.6,144.1,86.3,144.1
	z"/>
<path class="st0" d="M93.7,147.2c0.2-0.5,0.5-0.8,1.1-0.7c9.6,0,19.1,0,28.6,0c0.6,0,1.1,0.1,1.6,0.5c-0.7,0.3-1.5,0.2-2.3,0.2
	C113.1,147.2,103.4,147.4,93.7,147.2z"/>
<path class="st0" d="M60.5,158.4c0.4-1.8-0.1-3.6,0.6-5.3c0.5,0.2,1.1,0.4,1.6,0.5s1,0.2,1.5,0.3s1,0.2,1.5,0.4
	c0.5,0.1,1,0.2,1.5,0.3c0.6,0.2,1.2,0.3,1.8,0.4c0.5,0.2,1,0.3,1.5,0.4c0.6,0.2,1.2,0.3,1.8,0.4c0.6,0.2,1.2,0.3,1.8,0.4
	c0.6,0.2,1.2,0.3,1.9,0.4c1.3,0.4,2.7,0.5,3.9,0.7c1.6,0.4,3.2,0.5,4.7,0.7c1,0.5,2.3,0,3.3,0.6c2.1-0.1,4.1,0.6,6.2,0.5
	c1.4,0.7,3.1,0.1,4.6,0.4c1,0.5,2.2,0.2,3.3,0.3c6,0.1,12.1,0.1,18.1,0c0.2-0.1,0.5-0.2,0.7-0.3c1.6-0.2,3.2,0.2,4.6-0.4
	c2.2,0,4.3-0.6,6.5-0.5c0.9-0.4,2-0.1,2.9-0.5c1.6-0.1,3.2-0.4,4.7-0.7c4.2-0.6,8.5-1.5,12.6-2.6c0.5-0.1,1-0.2,1.5-0.3
	c1-0.2,1.9-0.5,2.9-0.7c0.9-0.1,1.9-0.9,2.7-0.2c0.2,1.7-0.2,3.4,0.3,4.9c0.2,1.8-0.1,3.6,0.3,5.4c0.3,1.6-0.1,3.2,0.3,4.7
	c0.4,1.7,0,3.4,0.3,5.1c0.2,1.1,0.2,2.2,0.2,3.3c-1.9,0.8-3.9,1.2-5.8,1.7c-0.5,0.2-1,0.2-1.5,0.4c-0.5,0.1-1,0.2-1.4,0.4
	c-0.5,0.2-1,0.2-1.5,0.3c-0.7,0.2-1.5,0.2-2.2,0.5c-1.8,0.4-3.6,0.7-5.4,1.1c-0.5,0.1-1,0.1-1.5,0.2c-0.7,0.3-1.5,0.3-2.2,0.4
	c-0.9,0.4-2,0.1-2.9,0.5c-1.6,0-3.2,0.5-4.7,0.5c-0.2,0.1-0.5,0.2-0.6,0.2c-1,0.1-2,0-3,0.1c-1.5,0.7-3.3-0.1-4.7,0.5
	c-2.4,0.4-4.8-0.2-7.2,0.5c-4.1,0.1-8.2,0.1-12.3,0c-2.3-0.6-4.6-0.1-6.9-0.4c-1.5-0.4-3.1-0.2-4.5-0.3c-1-0.6-2.3-0.1-3.4-0.5
	c-0.8-0.3-1.7-0.2-2.6-0.3c-1.7-0.4-3.4-0.5-5.1-0.7c-0.8-0.4-1.8-0.1-2.6-0.5c-0.7-0.1-1.5-0.1-2.2-0.4c-0.5-0.1-1-0.1-1.5-0.2
	c-0.6-0.3-1.2-0.3-1.8-0.4c-0.5-0.3-1.2-0.3-1.8-0.4c-0.5-0.2-1-0.3-1.5-0.4c-0.7-0.3-1.5-0.3-2.2-0.5c-0.5-0.1-1-0.2-1.5-0.4
	c-2.5-0.6-4.9-1.3-7.4-2c0.7-1.8,0.2-3.7,0.6-5.5c0.3-1.4,0-2.9,0.4-4.3c0.3-1.3,0-2.7,0.3-4C60.5,161.4,60.1,159.9,60.5,158.4z"/>
<path class="st0" d="M83.5,165.5c0,0.3-0.1,0.9-0.1,1.2c0.8,0.4,1.6,0.5,2.4,0.8c0.2,0,0.7,0,0.9,0c0,2.5,0,5,0,7.5
	c-0.1,0.7,0.4,1.2,0.9,1.7c0.6,0.1,1.4-0.3,1.3-1c0-2.8,0-5.5,0-8.2c0.6,0.1,1.1,0.2,1.6,0.4c0.3,0,1,0.1,1.3,0.1
	c0.6-0.7,0.6-1.8-0.5-1.9C88.6,166.1,86.1,165.1,83.5,165.5z"/>
<path class="st0" d="M131.5,165.5c-1.1,1-2.1,2.2-2.4,3.6c-0.1,1.5-0.2,3,0,4.4c0.2,1.2,1,2.2,1.8,3.1c1.6,0.2,3.4,0.2,4.4-1.2
	c1.5-2.2,1-4.9,0.8-7.4c-0.4-1.1-1.2-2.1-2.3-2.6C133.2,165.4,132.3,165.3,131.5,165.5z"/>
<path class="st0" d="M96.4,166.8c-1.6,0.6-2.6,2.2-2.7,3.8c-0.3,1.9-0.1,4,1.4,5.4c1.3,1.4,3.4,2,5.1,1.4c1.3-0.3,2.1-1.3,2.9-2.3
	c0.1-0.5,0.2-1,0.3-1.5c0.3-1,0.3-2.2,0-3.2c-0.1-1.5-1.2-2.7-2.3-3.4C99.8,166.5,98,166.3,96.4,166.8z"/>
<path class="st0" d="M122.6,167.9c-0.8,0.9-2,1.3-2.7,2.2c0.1,0.3,0.4,0.8,0.5,1c1.1-0.2,1.9-1,2.7-1.6c0.1,2.4-0.1,4.7,0.1,7.1
	c0,0.8,0.9,0.6,1.4,0.7c0.3-0.7,0.6-1.3,0.5-2.1c-0.1-3,0.1-5.9-0.1-8.9C123.7,165.8,123.3,167.3,122.6,167.9z"/>
<path class="st0" d="M106.3,167.2c-0.2,3.4-0.2,6.8,0,10.2c0.2,0.2,0.7,0.5,0.9,0.7c0.4-0.3,1.1-0.5,1.2-1c0.1-1.2,0-2.4,0.1-3.5
	c1.8,0,4.1,0.2,5.2-1.5c0.7-0.9,0.4-2,0.5-3.1c-0.5-1.3-1.7-2.2-3.1-2.3C109.5,166.9,107.8,166.5,106.3,167.2z"/>
<path class="st0" d="M95.9,170.2c0.3-0.8,0.8-1.4,1.5-1.9c1.2-0.4,2.5-0.1,3.3,0.8c1.6,2,1.3,5.3-1,6.7c-0.9,0-1.8,0.1-2.6-0.4
	c-0.6-0.6-1-1.2-1.2-2C95.6,172.4,95.6,171.3,95.9,170.2z"/>
<path class="st0" d="M108.4,168.5c1.3,0,2.9-0.1,3.5,1.2c0,1-0.7,1.7-1.6,2.1c-0.7,0-1.4,0-2.1,0
	C108.4,170.7,108.4,169.6,108.4,168.5z"/>
<g>
	<path class="st0" d="M27.4,189.6c55.7,0,111.3,0,166.9,0l0.3,0.7c-32.5,0.1-65,0-97.7,0c-23.3,0-46.4,0-69.7,0L27.4,189.6z"/>
	<path class="st0" d="M162,190.8c-10.9,0-21.8,0-32.4,0c-10.9,0-21.7,0-32.6,0H26.8l0.2-1.7h167.7l0.7,1.7h-0.7
		C183.8,190.8,172.9,190.8,162,190.8z"/>
</g>
<g>
	<path class="st0" d="M27,216c0.5-0.2,1.1-0.2,1.6-0.2c53.2,0,106.3,0,159.5,0c2.2,0,4.3-0.1,6.5,0.1c-0.1,0.4-0.4,0.6-0.7,0.6
		c-54.9,0-109.7,0-164.6,0C28.6,216.4,27.6,216.7,27,216z"/>
	<path class="st0" d="M194,217H29.4c-0.3,0-0.5,0-0.7,0c-0.7,0-1.5,0-2-0.6l-0.4-0.5l0.6-0.3c0.6-0.2,1.2-0.2,1.8-0.2h159.5
		c0.5,0,1.1,0,1.6,0c1.6,0,3.3,0,4.9,0.1l0.6,0.1l-0.1,0.6C195,216.6,194.5,217,194,217z"/>
</g>
<g>
	<path class="st0" d="M67.6,134.9c-0.2,0-0.5-0.2-0.5-0.5s0.3-0.6,0.7-0.9c4.7-4.1,11.4-9.5,11.4-16.6c0-5.3-3-6.4-4.6-6.4
		c-1.5,0-2.6,0.3-3.5,1.2c-0.8,0.8-1.4,2.4-1.4,3.3c0,0.3-0.1,0.7-0.4,0.7c-0.2,0-0.3-0.2-0.3-0.7c0-0.3-0.2-3.2-0.2-4.1
		c0-0.3,0-0.4,0.4-0.7c1.3-0.7,3.2-1.3,6.1-1.3c5.9,0,8.5,3.3,8.5,7.2c0,6.6-7.3,12.3-11.6,15.8c-0.2,0.1-0.1,0.2,0.1,0.2h2.3
		c0.6,0,4.5,0,5.8-0.2c2.4-0.3,3.4-1.4,3.8-3.1c0.1-0.4,0.2-0.5,0.4-0.5c0.2,0,0.3,0.3,0.3,0.7c0,0.5-0.7,3.6-1,4.8
		c-0.3,0.9-0.8,1-3,1L67.6,134.9L67.6,134.9z"/>
	<path class="st0" d="M99.5,135.5c-6.7,0-8.5-7.7-8.5-12.5c0-7.9,2.8-14,9.1-14c6.7,0,8.5,7.1,8.5,12.5
		C108.4,129.8,105.3,135.5,99.5,135.5z M99.3,110.5c-2.6,0-4.3,3.4-4.3,11.2c0,5.8,1.5,12.3,5.2,12.3c2.8,0,4.4-4.6,4.4-11.2
		C104.5,116.9,102.9,110.5,99.3,110.5z"/>
	<path class="st0" d="M120.2,119.4c0-1.9,0-3.3,0-4.4c0-0.8,0-1.2-0.5-1.2c-0.7,0-3.2,1.3-3.9,1.6c-0.2,0.1-0.3,0.1-0.5,0.1
		c-0.1,0-0.3-0.2-0.3-0.4c0-0.2,0.2-0.4,0.3-0.5c0.1-0.1,6.6-4.3,7.8-5.2c0.3-0.2,0.6-0.4,0.9-0.4s0.4,0.4,0.4,0.7s-0.2,3.6-0.2,8.8
		v6.3c0,3.3,0,6.1,0.1,7.6c0.1,1.1,0.3,1.6,1.4,1.9c0.5,0.1,2,0.2,2.3,0.2c0.1,0,0.3,0.1,0.3,0.3s-0.2,0.3-0.5,0.3
		c-2.6,0-4.7-0.1-5.6-0.1c-0.8,0-3.6,0.1-5.8,0.1c-0.4,0-0.6-0.1-0.6-0.3s0.1-0.3,0.3-0.3c0.4,0,2.1-0.1,2.7-0.2
		c1.1-0.2,1.3-0.7,1.4-1.8c0.1-1.5,0.2-4.3,0.2-7.6L120.2,119.4z"/>
	<path class="st0" d="M152.2,118.2c0,9.5-8.3,15.5-12.5,17.4c-0.2,0.1-0.3,0.1-0.6,0.1c-0.1,0-0.3-0.2-0.3-0.3
		c0-0.2,0.2-0.4,0.4-0.6c3.5-2.2,8.8-7.7,8.8-15.7c0-6-2.6-8.7-5.1-8.7s-4,2.2-4,5c0,5.2,3.4,6.4,4.5,6.4s1.9-0.2,2.3-0.4
		c0.4-0.2,0.5-0.4,0.7-0.4c0.1,0,0.3,0.1,0.3,0.3c0,0.1-0.1,0.3-0.2,0.4c-1,1.1-2.8,1.6-4.4,1.6c-4.8,0-6.9-3.6-6.9-6.5
		c0-4.5,3.4-7.9,8.7-7.9C149.1,109,152.2,113.1,152.2,118.2z"/>
</g>
<path class="st1" d="M110.3,3.5c4.7,0,9.5,0,14.3,0c1.9,0,3.4,1.5,3.4,3.4c0,9.6,0,19,0,28.6c0,1.9-1.4,3.4-3.4,3.4
	c-9.6,0-19.1,0-28.7,0c-2,0-3.4-1.4-3.4-3.4c0-9.6,0-19.2,0-28.8c0-1.9,1.4-3.3,3.3-3.3C100.7,3.5,105.5,3.5,110.3,3.5z"/>
<path class="st0" d="M118.4,19.3c0-3.4,0-6.8,0-10.2c0.9,0,1.7,0,2.5,0c0.5,0,0.5,0,0.5,0.5c0,2,0,4,0,6c0,0.3,0.1,0.4,0.3,0.5
	c0.2,0.1,0.5,0.2,0.7,0.3s0.4,0.3,0.4,0.5s0,0.4,0,0.7c0.3,0,0.5,0,0.7,0c0.3,0,0.4,0.1,0.4,0.4c0,0.5,0,1.1,0,1.7
	c0.3-0.1,0.5-0.1,0.7-0.2s0.4-0.1,0.6-0.2c0.3,0,0.4-0.2,0.4-0.5c0-0.9,0-1.9,0-2.8c0-0.5,0.1-0.8,0.6-1c0.1,0,0.3-0.1,0.4-0.1
	c0.2,0,0.4,0,0.6,0c0-0.2,0-0.3,0-0.4c0-2.6,0-5.1,0-7.7c0-1.2-1-2.5-2.5-2.5c-8.7,0-17.3,0-26,0c-1.1,0-2.1,0-3.2,0
	c-0.4,0-0.8,0.2-1.1,0.4c-0.8,0.5-1,1.3-1,2.2c0,3.1,0,6.1,0,9.2c0,0.1,0,0.2,0,0.4c0,0.3,0.1,0.4,0.4,0.3c0.9-0.3,1.8-0.2,2.5,0.4
	c0.1,0.1,0.2,0.3,0.2,0.4c0,0.4,0,0.8,0,1.2c0,0.3,0.1,0.4,0.4,0.4c0.4,0,0.6-0.1,0.8-0.4c0.4-0.5,0.7-1.1,0.6-1.8
	c0-0.3,0-0.6,0-0.9c0-0.2,0.1-0.3,0.3-0.3c0.9,0,1.8,0,2.7,0c0.1,0,0.1,0,0.2,0c0,0.1,0,0.3,0,0.4c0,1.2,0,2.4,0,3.5
	c0,0.3,0.1,0.4,0.4,0.4c0.2,0,0.5,0,0.7,0c0.5,0,0.5,0,0.5-0.5c0-1.8,0-3.5,0-5.3c0-0.1,0.1-0.4,0.2-0.4c0.4-0.1,0.4-0.4,0.4-0.7
	c0-0.2,0-0.4,0.3-0.5c0.5-0.3,0.7-0.7,0.6-1.3c0-0.2,0-0.3,0-0.5c0.6,0,0.6,0,0.6,0.5c0,0.2,0,0.5,0,0.7c0,0.1,0,0.2,0.1,0.3
	c0.2,0.3,0.4,0.6,0.6,0.9c0.4,0.5,0.7,1.1,0.6,1.8c-0.1,0.5,0,1,0,1.4c0,0.1,0.1,0.3,0.1,0.3c0.3,0,0.6,0.1,0.8,0
	c0.1,0,0.1-0.4,0.1-0.6c0-0.6,0-0.6,0.7-0.7c0,0,0,0,0.1-0.1c0-0.4,0-0.9,0-1.4c0-0.1,0-0.3,0.1-0.4c0.3-0.3,0.5-0.7,0.5-1.1
	c0.1-1,0.8-1.8,0.7-2.8c0-0.1,0-0.3,0.1-0.4c0,0.1,0,0.2,0.1,0.3c0.1,0.6,0.1,1.3,0.4,1.9c0.2,0.3,0.3,0.7,0.3,1.1
	c0.1,0.8,0.1,1.6,0.1,2.3c0,0.3,0.2,0.4,0.4,0.4c0.3,0,0.3-0.2,0.3-0.4c-0.1-0.5,0.1-0.9,0.4-1.2c0.1-0.1,0.1-0.3,0.1-0.4
	c0-0.5,0-0.9,0-1.4c0.2,0,0.3,0,0.4,0c0.4,0,0.8-0.1,1,0.1c0.2,0.2,0.1,0.7,0.1,1c0,0.2,0,0.5,0.1,0.7c0.3,0.5,0.4,1.1,0.4,1.7
	c0,0.3,0.1,0.6,0.3,0.9c0.3,0.3,0.5,0.7,0.4,1.2c0,0.4,0,0.8,0,1.2c0.3-0.3,0.6-0.6,0.8-1c0.1-0.1,0.2-0.2,0.2-0.2
	c0.5,0,1.1,0,1.7,0c0,0.6,0,1.2,0,1.9C117.5,19.3,117.9,19.3,118.4,19.3z"/>
<path class="st0" d="M100.2,17.7c0,0.4,0,0.8,0,1.2c0.3,0,0.5,0,0.8,0c0-0.4,0-0.8,0-1.2c-0.1,0-0.2,0-0.3,0S100.4,17.7,100.2,17.7z
	"/>
<path class="st0" d="M101,17.5c0-0.4,0-0.8,0-1.2c-0.3,0-0.5,0-0.7,0c0,0.4,0,0.8,0,1.2C100.6,17.5,100.8,17.5,101,17.5z"/>
<path class="st0" d="M106,16.5c0-0.3,0-0.6,0-0.9c-0.3,0-0.6,0-0.9,0c0,0.3,0,0.6,0,0.9C105.5,16.5,105.7,16.5,106,16.5z"/>
<path class="st0" d="M104.1,15.2c0-0.3,0-0.6,0-0.9c-0.3,0-0.6,0-0.8,0c0,0.3,0,0.6,0,0.9C103.5,15.2,103.8,15.2,104.1,15.2z"/>
<path class="st0" d="M94.3,20.7c0-0.3,0-0.6,0-0.9c-0.3,0-0.5,0-0.8,0c0,0.3,0,0.6,0,0.9C93.8,20.7,94,20.7,94.3,20.7z"/>
<path class="st0" d="M126.9,16.4c-0.3,0-0.5,0-0.8,0c0,0.3,0,0.5,0,0.8c0.3,0,0.5,0,0.8,0C126.9,16.9,126.9,16.6,126.9,16.4z"/>
<path class="st0" d="M126,16.2c0.3,0,0.5,0,0.8,0c0-0.3,0-0.5,0-0.8c-0.3,0-0.5,0-0.8,0C126,15.7,126,16,126,16.2z"/>
<path class="st0" d="M94.3,18.1c0-0.2,0-0.5,0-0.7c-0.3,0-0.5,0-0.8,0c0,0.3,0,0.5,0,0.7C93.8,18.1,94,18.1,94.3,18.1z"/>
<path class="st0" d="M113.2,16.1c0-0.3,0-0.5,0-0.8c-0.3,0-0.5,0-0.7,0c0,0.3,0,0.5,0,0.8C112.8,16.1,113,16.1,113.2,16.1z"/>
<path class="st0" d="M94.5,18.1c0.3,0,0.5,0,0.8,0c0-0.3,0-0.5,0-0.7c-0.3,0-0.5,0-0.8,0C94.5,17.6,94.5,17.9,94.5,18.1z"/>
<path class="st0" d="M94.3,18.6c-0.3,0-0.5,0-0.8,0c0,0.3,0,0.5,0,0.7c0.3,0,0.5,0,0.8,0C94.3,19,94.3,18.9,94.3,18.6z"/>
<path class="st0" d="M94.5,19.2c0.3,0,0.5,0,0.8,0c0-0.3,0-0.5,0-0.7c-0.3,0-0.5,0-0.8,0C94.5,18.9,94.5,19,94.5,19.2z"/>
<path class="st0" d="M111.4,14.9c0.3,0,0.5,0,0.8,0c0-0.3,0-0.5,0-0.7c-0.3,0-0.5,0-0.8,0C111.4,14.5,111.4,14.7,111.4,14.9z"/>
<path class="st0" d="M113.2,14.2c-0.2,0-0.5,0-0.7,0c0,0.2,0,0.5,0,0.7c0.3,0,0.5,0,0.7,0C113.2,14.7,113.2,14.5,113.2,14.2z"/>
<path class="st0" d="M119.4,11c0-0.2,0-0.4,0-0.7c-0.2,0-0.4,0-0.6,0c0,0.2,0,0.4,0,0.7C119,11,119.2,11,119.4,11z"/>
<path class="st0" d="M119.4,13.8c-0.2,0-0.4,0-0.6,0c0,0.2,0,0.4,0,0.6c0.2,0,0.4,0,0.6,0C119.4,14.3,119.4,14.1,119.4,13.8z"/>
<path class="st0" d="M119.4,11.3c-0.2,0-0.4,0-0.6,0c0,0.2,0,0.4,0,0.6c0.2,0,0.4,0,0.6,0C119.4,11.7,119.4,11.5,119.4,11.3z"/>
<path class="st0" d="M120.1,11c0-0.2,0-0.4,0-0.6c-0.2,0-0.4,0-0.6,0c0,0.2,0,0.4,0,0.6C119.8,11,120,11,120.1,11z"/>
<path class="st0" d="M119.6,14.5c0.2,0,0.4,0,0.6,0c0-0.2,0-0.4,0-0.6c-0.2,0-0.4,0-0.6,0C119.6,14.1,119.6,14.3,119.6,14.5z"/>
<path class="st0" d="M119.6,13c0,0.2,0,0.4,0,0.6c0.2,0,0.4,0,0.6,0c0-0.2,0-0.4,0-0.6C120,13,119.8,13,119.6,13z"/>
<path class="st0" d="M119.4,13.6c0-0.2,0-0.4,0-0.6c-0.2,0-0.4,0-0.6,0c0,0.2,0,0.4,0,0.6C119,13.6,119.2,13.6,119.4,13.6z"/>
<path class="st0" d="M120.3,12.2c0,0.2,0,0.4,0,0.6c0.2,0,0.4,0,0.6,0c0-0.2,0-0.4,0-0.6C120.7,12.2,120.5,12.2,120.3,12.2z"/>
<path class="st0" d="M120.3,9.4c0,0.2,0,0.4,0,0.6c0.2,0,0.4,0,0.6,0c0-0.2,0-0.4,0-0.6C120.7,9.4,120.5,9.4,120.3,9.4z"/>
<path class="st0" d="M119.6,12.2c0,0.2,0,0.4,0,0.6c0.2,0,0.4,0,0.6,0c0-0.2,0-0.4,0-0.6C120,12.2,119.8,12.2,119.6,12.2z"/>
<path class="st0" d="M118.8,12.2c0,0.2,0,0.4,0,0.6c0.2,0,0.4,0,0.6,0c0-0.2,0-0.4,0-0.6C119.2,12.2,119,12.2,118.8,12.2z"/>
<path class="st0" d="M120.9,11.3c-0.2,0-0.4,0-0.6,0c0,0.2,0,0.4,0,0.6c0.2,0,0.4,0,0.6,0C120.9,11.6,120.9,11.5,120.9,11.3z"/>
<path class="st0" d="M119.4,10c0-0.2,0-0.4,0-0.6c-0.2,0-0.4,0-0.6,0c0,0.2,0,0.4,0,0.6C119,10,119.2,10,119.4,10z"/>
<path class="st0" d="M120.4,13.9c0,0.2,0,0.4,0,0.6c0.2,0,0.3,0,0.5,0c0-0.2,0-0.4,0-0.6C120.7,13.9,120.5,13.9,120.4,13.9z"/>
<path class="st0" d="M120.4,13.1c0,0.2,0,0.4,0,0.6c0.2,0,0.3,0,0.5,0c0-0.2,0-0.4,0-0.6C120.7,13.1,120.5,13.1,120.4,13.1z"/>
<path class="st0" d="M120.1,10c0-0.2,0-0.4,0-0.6c-0.2,0-0.3,0-0.5,0c0,0.2,0,0.4,0,0.6C119.8,10,120,10,120.1,10z"/>
<path class="st0" d="M119.7,11.3c0,0.2,0,0.4,0,0.6c0.2,0,0.3,0,0.5,0c0-0.2,0-0.4,0-0.6C120,11.3,119.8,11.3,119.7,11.3z"/>
<path class="st0" d="M120.9,11c0-0.2,0-0.4,0-0.6c-0.2,0-0.3,0-0.5,0c0,0.2,0,0.4,0,0.6C120.5,11,120.7,11,120.9,11z"/>
<path class="st0" d="M124.8,3.5h-29c-1.8,0-3.2,1.4-3.2,3.2v29.1c0,1.8,1.4,3.2,3.2,3.2h29c1.8,0,3.2-1.4,3.2-3.2V6.6
	C127.9,5,126.6,3.5,124.8,3.5z M126.8,35.7c0,1.1-0.9,1.9-1.9,1.9H95.8c-1.1,0-1.9-0.9-1.9-1.9V6.6c0-1.1,0.9-1.9,1.9-1.9h29
	c1.1,0,1.9,0.9,1.9,1.9L126.8,35.7L126.8,35.7z"/>
<path class="st0" d="M100.2,17.7c0.2,0,0.3,0,0.5,0c0.1,0,0.2,0,0.3,0c0,0.4,0,0.8,0,1.2c-0.3,0-0.5,0-0.8,0
	C100.2,18.5,100.2,18.1,100.2,17.7z"/>
<path class="st0" d="M101,17.5c-0.2,0-0.5,0-0.7,0c0-0.4,0-0.8,0-1.2c0.2,0,0.5,0,0.7,0C101,16.7,101,17.1,101,17.5z"/>
<path class="st0" d="M106,16.5c-0.3,0-0.6,0-0.9,0c0-0.3,0-0.6,0-0.9c0.3,0,0.6,0,0.9,0C106,15.9,106,16.2,106,16.5z"/>
<path class="st0" d="M104.1,15.2c-0.3,0-0.6,0-0.8,0c0-0.3,0-0.6,0-0.9c0.3,0,0.6,0,0.8,0C104.1,14.6,104.1,14.9,104.1,15.2z"/>
<path class="st0" d="M94.3,20.7c-0.3,0-0.5,0-0.8,0c0-0.3,0-0.6,0-0.9c0.3,0,0.5,0,0.8,0C94.3,20.1,94.3,20.4,94.3,20.7z"/>
<path class="st0" d="M126.9,16.4c0,0.3,0,0.5,0,0.8c-0.3,0-0.5,0-0.8,0c0-0.3,0-0.5,0-0.8C126.3,16.4,126.6,16.4,126.9,16.4z"/>
<path class="st0" d="M126,16.2c0-0.3,0-0.5,0-0.8c0.3,0,0.5,0,0.8,0c0,0.3,0,0.5,0,0.8C126.5,16.2,126.3,16.2,126,16.2z"/>
<path class="st0" d="M94.3,18.1c-0.3,0-0.5,0-0.8,0c0-0.2,0-0.5,0-0.7c0.3,0,0.5,0,0.8,0C94.3,17.6,94.3,17.9,94.3,18.1z"/>
<path class="st0" d="M113.2,16.1c-0.2,0-0.5,0-0.7,0c0-0.3,0-0.5,0-0.8c0.2,0,0.5,0,0.7,0C113.2,15.6,113.2,15.8,113.2,16.1z"/>
<path class="st0" d="M94.5,18.1c0-0.2,0-0.5,0-0.7c0.3,0,0.5,0,0.8,0c0,0.2,0,0.5,0,0.7C95.1,18.1,94.8,18.1,94.5,18.1z"/>
<path class="st0" d="M94.3,18.6c0,0.2,0,0.5,0,0.7c-0.3,0-0.5,0-0.8,0c0-0.2,0-0.5,0-0.7C93.8,18.6,94,18.6,94.3,18.6z"/>
<path class="st0" d="M94.5,19.2c0-0.2,0-0.5,0-0.7c0.3,0,0.5,0,0.8,0c0,0.2,0,0.5,0,0.7C95.1,19.2,94.8,19.2,94.5,19.2z"/>
<path class="st0" d="M111.4,14.9c0-0.2,0-0.5,0-0.7c0.3,0,0.5,0,0.8,0c0,0.2,0,0.5,0,0.7C112,14.9,111.7,14.9,111.4,14.9z"/>
<path class="st0" d="M113.2,14.2c0,0.2,0,0.5,0,0.7c-0.2,0-0.5,0-0.7,0c0-0.2,0-0.4,0-0.7C112.8,14.2,113,14.2,113.2,14.2z"/>
<path class="st0" d="M119.4,11c-0.2,0-0.4,0-0.6,0c0-0.2,0-0.4,0-0.7c0.2,0,0.4,0,0.6,0C119.4,10.5,119.4,10.8,119.4,11z"/>
<path class="st0" d="M119.4,13.8c0,0.2,0,0.4,0,0.6c-0.2,0-0.4,0-0.6,0c0-0.2,0-0.4,0-0.6C119,13.8,119.2,13.8,119.4,13.8z"/>
<path class="st0" d="M119.4,11.3c0,0.2,0,0.4,0,0.6c-0.2,0-0.4,0-0.6,0c0-0.2,0-0.4,0-0.6C119,11.3,119.2,11.3,119.4,11.3z"/>
<path class="st0" d="M120.1,11c-0.2,0-0.4,0-0.6,0c0-0.2,0-0.4,0-0.6c0.2,0,0.4,0,0.6,0C120.1,10.5,120.1,10.7,120.1,11z"/>
<path class="st0" d="M119.6,14.5c0-0.2,0-0.4,0-0.6c0.2,0,0.4,0,0.6,0c0,0.2,0,0.4,0,0.6C120,14.5,119.8,14.5,119.6,14.5z"/>
<path class="st0" d="M119.6,13c0.2,0,0.4,0,0.6,0c0,0.2,0,0.4,0,0.6c-0.2,0-0.4,0-0.6,0C119.6,13.4,119.6,13.2,119.6,13z"/>
<path class="st0" d="M119.4,13.6c-0.2,0-0.4,0-0.6,0c0-0.2,0-0.4,0-0.6c0.2,0,0.4,0,0.6,0C119.4,13.2,119.4,13.4,119.4,13.6z"/>
<path class="st0" d="M120.3,12.2c0.2,0,0.4,0,0.6,0c0,0.2,0,0.4,0,0.6c-0.2,0-0.4,0-0.6,0C120.3,12.5,120.3,12.3,120.3,12.2z"/>
<path class="st0" d="M120.3,9.4c0.2,0,0.4,0,0.6,0c0,0.2,0,0.4,0,0.6c-0.2,0-0.4,0-0.6,0C120.3,9.8,120.3,9.7,120.3,9.4z"/>
<path class="st0" d="M119.6,12.2c0.2,0,0.4,0,0.6,0c0,0.2,0,0.4,0,0.6c-0.2,0-0.4,0-0.6,0C119.6,12.5,119.6,12.3,119.6,12.2z"/>
<path class="st0" d="M118.8,12.2c0.2,0,0.4,0,0.6,0c0,0.2,0,0.4,0,0.6c-0.2,0-0.4,0-0.6,0C118.8,12.5,118.8,12.3,118.8,12.2z"/>
<path class="st0" d="M120.9,11.3c0,0.2,0,0.4,0,0.6c-0.2,0-0.4,0-0.6,0c0-0.2,0-0.4,0-0.6C120.5,11.3,120.7,11.3,120.9,11.3z"/>
<path class="st0" d="M119.4,10c-0.2,0-0.4,0-0.6,0c0-0.2,0-0.4,0-0.6c0.2,0,0.4,0,0.6,0C119.4,9.6,119.4,9.8,119.4,10z"/>
<path class="st0" d="M120.4,13.9c0.2,0,0.3,0,0.5,0c0,0.2,0,0.4,0,0.6c-0.2,0-0.3,0-0.5,0C120.4,14.3,120.4,14.1,120.4,13.9z"/>
<path class="st0" d="M120.4,13.1c0.2,0,0.3,0,0.5,0c0,0.2,0,0.4,0,0.6c-0.2,0-0.3,0-0.5,0C120.4,13.4,120.4,13.3,120.4,13.1z"/>
<path class="st0" d="M120.1,10c-0.2,0-0.3,0-0.5,0c0-0.2,0-0.4,0-0.6c0.1,0,0.3,0,0.5,0C120.1,9.6,120.1,9.8,120.1,10z"/>
<path class="st0" d="M119.7,11.3c0.2,0,0.3,0,0.5,0c0,0.2,0,0.4,0,0.6c-0.2,0-0.3,0-0.5,0C119.7,11.6,119.7,11.4,119.7,11.3z"/>
<path class="st0" d="M120.9,11c-0.2,0-0.3,0-0.5,0c0-0.2,0-0.4,0-0.6c0.2,0,0.3,0,0.5,0C120.9,10.6,120.9,10.8,120.9,11z"/>
<g>
	<path class="st0" d="M97.3,22.1c0.6,0,1.5,0.4,1.5,0.9c0,0.2-0.1,0.3-0.3,0.3c-0.3,0-0.5-0.5-1.2-0.5c-0.4,0-0.8,0.2-0.8,0.6
		c0,0.9,2.5,0.8,2.5,2.3c0,1.1-0.8,1.6-1.7,1.6c-1,0-1.7-0.5-1.7-1c0-0.2,0.1-0.4,0.3-0.4c0.3,0,0.6,0.6,1.5,0.6
		c0.6,0,0.9-0.3,0.9-0.7c0-1-2.5-0.9-2.5-2.3C95.8,22.5,96.6,22.1,97.3,22.1z"/>
	<path class="st0" d="M101.4,22.1c1.3,0,2,1.2,2,2.6c0,1.3-0.7,2.6-2,2.6s-2-1.2-2-2.6S100.1,22.1,101.4,22.1z M101.4,26.4
		c0.9,0,1.3-1,1.3-1.9s-0.3-1.9-1.3-1.9c-0.9,0-1.3,1-1.3,1.9C100.1,25.5,100.5,26.4,101.4,26.4z"/>
	<path class="st0" d="M104.2,22.5c0-0.3,0.1-0.4,0.4-0.4c0.2,0,0.4,0.2,0.4,0.4v2.7c0,0.9,0.3,1.3,1.1,1.3c0.7,0,1.1-0.5,1.1-1.3
		v-2.7c0-0.3,0.1-0.4,0.4-0.4c0.2,0,0.4,0.2,0.4,0.4v2.7c0,1.5-0.9,2-1.8,2s-1.8-0.5-1.8-2v-2.7H104.2z"/>
	<path class="st0" d="M108.7,22.5c0-0.3,0.1-0.4,0.4-0.4c0.2,0,0.4,0.2,0.4,0.4v0.4l0,0c0.2-0.4,0.6-0.9,1-0.9
		c0.3,0,0.4,0.2,0.4,0.4c0,0.2-0.2,0.4-0.5,0.5c-0.5,0.1-1,0.5-1,1.4v2.4c0,0.3-0.1,0.4-0.4,0.4c-0.2,0-0.4-0.2-0.4-0.4L108.7,22.5
		L108.7,22.5z"/>
	<path class="st0" d="M113.2,22.1c0.8,0,1.2,0.3,1.2,0.6c0,0.2-0.1,0.4-0.3,0.4c-0.3,0-0.4-0.3-0.9-0.3c-1,0-1.3,1-1.3,1.9
		s0.4,1.9,1.3,1.9c0.5,0,0.7-0.3,0.9-0.3c0.2,0,0.3,0.1,0.3,0.4s-0.4,0.7-1.2,0.7c-1.4,0-2.1-1.2-2.1-2.6
		C111.1,23.3,111.8,22.1,113.2,22.1z"/>
	<path class="st0" d="M115.4,20.3c0.3,0,0.5,0.2,0.5,0.5s-0.2,0.5-0.5,0.5s-0.5-0.2-0.5-0.5C114.9,20.6,115.2,20.3,115.4,20.3z
		 M115.8,26.7c0,0.3-0.1,0.4-0.4,0.4c-0.2,0-0.4-0.2-0.4-0.4v-4.2c0-0.3,0.1-0.4,0.4-0.4c0.2,0,0.4,0.2,0.4,0.4V26.7z"/>
	<path class="st0" d="M116.7,22.5c0-0.3,0.1-0.4,0.4-0.4c0.2,0,0.4,0.2,0.4,0.4v0.2l0,0c0.3-0.5,0.8-0.7,1.3-0.7
		c0.7,0,1.6,0.5,1.6,1.9v2.8c0,0.3-0.1,0.4-0.4,0.4c-0.2,0-0.4-0.2-0.4-0.4v-2.8c0-0.9-0.6-1.2-1.1-1.2s-1.1,0.4-1.1,1.2v2.8
		c0,0.3-0.1,0.4-0.4,0.4c-0.2,0-0.4-0.2-0.4-0.4L116.7,22.5L116.7,22.5z"/>
	<path class="st0" d="M125,26.7c0,1.5-0.8,2.4-2.1,2.4c-0.8,0-1.8-0.5-1.8-0.9c0-0.2,0.1-0.4,0.3-0.4c0.3,0,0.7,0.6,1.5,0.6
		c1,0,1.3-0.8,1.3-1.6v-0.4l0,0c-0.2,0.4-0.7,0.7-1.2,0.7c-1.3,0-2-1.2-2-2.6c0-1.3,0.7-2.6,2-2.6c0.5,0,1,0.3,1.2,0.6l0,0v-0.2
		c0-0.3,0.2-0.4,0.4-0.4c0.1,0,0.4,0.1,0.4,0.4C125,22.4,125,26.7,125,26.7z M123.1,26.4c0.9,0,1.3-1,1.3-1.9s-0.3-1.9-1.3-1.9
		c-0.9,0-1.3,1-1.3,1.9C121.8,25.5,122.1,26.4,123.1,26.4z"/>
</g>
<path class="st0" d="M115.1,30.6c0,0.2-0.1,0.3-0.2,0.5c-0.1,0.1-0.2,0.2-0.4,0.2c-0.1,0-0.3,0-0.6-0.1c-0.2-0.1-0.4-0.1-0.6-0.1
	c-0.4,0-0.7,0.1-0.9,0.4c-0.2,0.3-0.3,0.6-0.3,1s0.1,0.7,0.3,1c0.2,0.3,0.5,0.4,0.9,0.4c0.1,0,0.3,0,0.6-0.1
	c0.3-0.1,0.4-0.1,0.5-0.2c0.2,0,0.3,0.1,0.4,0.2c0.1,0.1,0.2,0.3,0.2,0.5s-0.1,0.4-0.3,0.5c-0.4,0.3-0.8,0.4-1.4,0.4
	c-0.7,0-1.4-0.3-1.8-0.8c-0.5-0.5-0.7-1.2-0.7-1.9s0.2-1.4,0.7-1.9s1.1-0.8,1.8-0.8c0.4,0,0.7,0,0.9,0.1c0.3,0.1,0.5,0.2,0.6,0.3
	C115,30.2,115.1,30.4,115.1,30.6z"/>
<path class="st0" d="M116.1,27.6c0.2,0,0.4,0.1,0.6,0.2c0.2,0.2,0.2,0.3,0.2,0.6c0,0.2-0.1,0.4-0.2,0.6c-0.2,0.2-0.3,0.2-0.6,0.2
	c-0.2,0-0.4-0.1-0.5-0.2c-0.2-0.2-0.2-0.4-0.2-0.6s0.1-0.4,0.2-0.5C115.7,27.7,115.9,27.6,116.1,27.6z M115.4,34.2v-3.7
	c0-0.2,0.1-0.4,0.2-0.6c0.1-0.1,0.3-0.2,0.5-0.2s0.4,0.1,0.5,0.2s0.2,0.3,0.2,0.6v3.7c0,0.2-0.1,0.4-0.2,0.6
	c-0.1,0.1-0.3,0.2-0.5,0.2s-0.4-0.1-0.5-0.2C115.5,34.6,115.4,34.4,115.4,34.2z"/>
<path class="st0" d="M117.9,34.2V31h-0.3c-0.2,0-0.3-0.1-0.5-0.2c-0.1-0.1-0.2-0.3-0.2-0.4s0.1-0.3,0.2-0.5c0.1-0.1,0.3-0.2,0.4-0.2
	h0.3v-0.8c0-0.2,0.1-0.4,0.2-0.6c0.1-0.1,0.3-0.2,0.5-0.2s0.4,0.1,0.5,0.2s0.2,0.3,0.2,0.6v0.8h0.4c0.2,0,0.4,0.1,0.5,0.2
	s0.2,0.3,0.2,0.5s-0.1,0.4-0.2,0.5s-0.3,0.2-0.5,0.2h-0.4v3.3c0,0.2-0.1,0.4-0.2,0.6c-0.1,0.1-0.3,0.2-0.5,0.2s-0.4-0.1-0.5-0.2
	C118,34.6,117.9,34.4,117.9,34.2z"/>
<path class="st0" d="M120.5,30.3c0-0.1,0.1-0.3,0.2-0.4s0.3-0.2,0.5-0.2c0.3,0,0.6,0.2,0.7,0.5l1,2.7l1-2.7c0.1-0.3,0.4-0.5,0.7-0.5
	c0.2,0,0.3,0.1,0.5,0.2c0.1,0.1,0.2,0.3,0.2,0.4c0,0.2,0,0.3-0.1,0.4l-2.4,5.8c-0.2,0.4-0.4,0.6-0.7,0.6c-0.2,0-0.4-0.1-0.5-0.2
	c-0.1-0.1-0.2-0.3-0.2-0.4c0-0.1,0-0.3,0.1-0.4l0.6-1.5l-1.6-3.8C120.5,30.6,120.5,30.4,120.5,30.3z"/>
<g>
	<path class="st0" d="M98.6,45.9h-1.2l-0.6-1.6h-2.2L94,45.9h-1.2l2.4-6.2h0.9L98.6,45.9z M96.4,43.3l-0.7-1.8L95,43.3H96.4z"/>
	<path class="st0" d="M106,39.7l-1.7,6.2h-0.9l-1-4.1l-1,4.1h-0.9l-1.7-6.2h1.1l1,4.3l1-4.3h0.8l1,4.3l1-4.3H106z"/>
	<path class="st0" d="M112.1,45.9H111l-0.6-1.6h-2.2l-0.6,1.6h-1.2l2.4-6.2h0.9L112.1,45.9z M109.9,43.3l-0.7-1.8l-0.7,1.8H109.9z"
		/>
	<path class="st0" d="M117,45.9h-1.3l-1.5-2.3v2.3h-1.1v-6.2h1.7c0.9,0,1.5,0.3,1.8,0.8c0.2,0.3,0.4,0.7,0.4,1.2s-0.1,1-0.4,1.3
		c-0.3,0.4-0.7,0.6-1.1,0.6L117,45.9z M115.8,41.8c0-0.4-0.1-0.7-0.4-0.8c-0.2-0.1-0.4-0.1-0.6-0.1h-0.6v1.9h0.6
		c0.3,0,0.5,0,0.6-0.1C115.7,42.5,115.8,42.2,115.8,41.8z"/>
	<path class="st0" d="M122.7,42.9c0,0.4,0,0.8-0.2,1.1c-0.2,0.6-0.4,1-0.8,1.3c-0.5,0.4-1.2,0.7-2.1,0.7H118v-6.2h1.6
		c0.8,0,1.5,0.2,2,0.6c0.4,0.3,0.7,0.7,0.9,1.3C122.6,42,122.7,42.4,122.7,42.9z M121.6,42.9c0-0.9-0.3-1.4-0.8-1.8
		c-0.3-0.2-0.7-0.3-1.3-0.3H119v3.9h0.5c0.5,0,0.9-0.1,1.2-0.3C121.3,44.3,121.6,43.7,121.6,42.9z"/>
	<path class="st0" d="M127.1,44.2c0,0.6-0.2,1-0.5,1.4c-0.4,0.4-0.8,0.6-1.4,0.6c-0.5,0-0.9-0.2-1.3-0.5c-0.4-0.4-0.6-0.8-0.6-1.4
		h1.1c0,0.2,0.1,0.4,0.2,0.6c0.2,0.1,0.3,0.2,0.6,0.2c0.2,0,0.4-0.1,0.6-0.2c0.1-0.2,0.2-0.3,0.2-0.6s-0.1-0.5-0.3-0.7
		c-0.1-0.1-0.3-0.2-0.6-0.3c-0.5-0.2-0.8-0.4-1.1-0.5c-0.4-0.3-0.6-0.8-0.6-1.3s0.1-0.9,0.4-1.2c0.3-0.4,0.8-0.6,1.3-0.6
		s0.9,0.2,1.3,0.6c0.3,0.3,0.4,0.7,0.4,1.2h-1.1c0-0.2,0-0.3-0.1-0.4c-0.1-0.1-0.3-0.2-0.5-0.2s-0.4,0.1-0.5,0.2
		c-0.1,0.1-0.2,0.3-0.2,0.5s0.1,0.4,0.3,0.5c0.1,0.1,0.3,0.2,0.5,0.2c0.5,0.2,0.9,0.3,1.1,0.5C126.9,43.1,127.1,43.6,127.1,44.2z"/>
</g>
<g>
	<path class="st0" d="M53.5,59.1c0-2.5,0-3,0-3.4c0-0.6-0.2-0.8-0.7-0.9c-0.1,0-0.4,0-0.6,0c-0.2,0-0.3,0-0.3-0.1s0.1-0.1,0.3-0.1
		c0.8,0,1.8,0,2.2,0c0.5,0,1.4,0,2.4,0c1.9,0,4.4,0,6.1,1.9c0.8,0.9,1.5,2.2,1.5,4.1c0,2.1-0.8,3.6-1.7,4.5c-0.7,0.8-2.3,1.9-5,1.9
		c-0.6,0-1.2,0-1.8-0.1c-0.6,0-1.1-0.1-1.5-0.1c-0.2,0-0.5,0-0.9,0s-0.8,0-1.1,0c-0.2,0-0.3,0-0.3-0.2c0-0.1,0.1-0.1,0.2-0.1
		c0.2,0,0.4,0,0.6-0.1c0.3-0.1,0.4-0.4,0.4-0.9c0.1-0.7,0.1-2,0.1-3.4L53.5,59.1L53.5,59.1z M55.4,60.8c0,1.7,0,3,0,3.3
		c0,0.4,0,1.1,0.2,1.3c0.2,0.3,0.8,0.7,2,0.7c1.6,0,2.6-0.3,3.4-1.2c1-0.9,1.3-2.4,1.3-4c0-2.1-0.8-3.4-1.5-4
		c-1.4-1.4-3.2-1.6-4.3-1.6c-0.3,0-0.9,0-1,0.1s-0.2,0.1-0.2,0.3c0,0.6,0,2,0,3.3L55.4,60.8L55.4,60.8z"/>
	<path class="st0" d="M67.5,60.2c0-2.1,0-2.5,0-3s-0.2-0.6-0.5-0.7c-0.2,0-0.3-0.1-0.5-0.1c-0.1,0-0.2,0-0.2-0.2
		c0-0.1,0.1-0.1,0.3-0.1c0.5,0,1.4,0,1.8,0c0.3,0,1.2,0,1.7,0c0.2,0,0.3,0,0.3,0.1s-0.1,0.2-0.2,0.2s-0.2,0-0.4,0
		c-0.4,0.1-0.5,0.3-0.5,0.8c0,0.4,0,0.8,0,3v2.5c0,1.3,0,2.5,0.1,3.1c0,0.4,0.1,0.6,0.5,0.7c0.2,0,0.5,0,0.7,0s0.2,0.1,0.2,0.1
		c0,0.1-0.1,0.1-0.3,0.1c-0.9,0-1.8,0-2.2,0c-0.3,0-1.2,0-1.8,0c-0.2,0-0.3,0-0.3-0.1s0-0.1,0.2-0.1s0.4,0,0.5,0
		c0.3-0.1,0.4-0.3,0.4-0.7c0.1-0.6,0.1-1.7,0.1-3L67.5,60.2L67.5,60.2z"/>
	<path class="st0" d="M73.7,66.4c-0.2-0.1-0.3-0.2-0.3-0.5c0-0.8,0.1-1.6,0.1-1.9c0-0.2,0.1-0.4,0.2-0.4s0.1,0.1,0.1,0.2
		c0,0.2,0,0.5,0.1,0.7c0.3,1,1.3,1.4,2.1,1.4c1.2,0,1.9-0.8,1.9-1.8c0-0.6-0.1-1.2-1.3-2l-0.8-0.5c-1.6-1-2.1-1.9-2.1-3.2
		c0-1.7,1.5-2.8,3.4-2.8c0.9,0,1.6,0.1,1.9,0.2c0.1,0,0.2,0.1,0.2,0.2c0,0.2,0,0.6,0,1.7c0,0.3-0.1,0.4-0.2,0.4s-0.1-0.1-0.1-0.2
		c0-0.1-0.1-0.6-0.4-0.9c-0.2-0.3-0.6-0.7-1.5-0.7c-1,0-1.8,0.5-1.8,1.5c0,0.6,0.2,1.1,1.4,1.8l0.6,0.3c1.8,1.1,2.3,2.1,2.3,3.4
		c0,1-0.4,1.9-1.4,2.6c-0.6,0.5-1.5,0.6-2.3,0.6C75.1,66.8,74.3,66.7,73.7,66.4z"/>
	<path class="st0" d="M85.2,57.1h-2c-0.8,0-1.1,0.1-1.3,0.4c-0.1,0.2-0.2,0.4-0.2,0.5s-0.1,0.2-0.2,0.2s-0.1-0.1-0.1-0.2
		c0-0.2,0.3-1.6,0.3-1.7c0-0.2,0.1-0.3,0.2-0.3s0.2,0.1,0.6,0.2c0.4,0,0.9,0.1,1.4,0.1h5.4c0.4,0,0.7,0,0.9-0.1
		c0.2,0,0.3-0.1,0.4-0.1s0.1,0.1,0.1,0.3c0,0.3,0,1.3,0,1.7c0,0.1,0,0.2-0.1,0.2s-0.1-0.1-0.2-0.3v-0.1c0-0.4-0.4-0.8-1.6-0.8h-1.7
		v5.6c0,1.3,0,2.4,0.1,3c0,0.4,0.1,0.7,0.5,0.7c0.2,0,0.5,0,0.7,0s0.2,0.1,0.2,0.1c0,0.1-0.1,0.1-0.3,0.1c-0.9,0-1.8,0-2.2,0
		c-0.3,0-1.2,0-1.8,0c-0.2,0-0.3,0-0.3-0.1s0-0.1,0.2-0.1s0.4,0,0.5,0c0.3-0.1,0.4-0.3,0.4-0.7c0.1-0.6,0.1-1.7,0.1-3V57.1
		L85.2,57.1z"/>
	<path class="st0" d="M93.7,60.2c0-2.1,0-2.5,0-3s-0.2-0.6-0.6-0.8c-0.1,0-0.3,0-0.5,0c-0.1,0-0.2,0-0.2-0.1s0.1-0.1,0.3-0.1
		c0.7,0,1.6,0,1.8,0c0.5,0,1.7,0,2.1,0c0.9,0,1.8,0.1,2.6,0.6c0.4,0.3,1,1,1,1.9c0,1-0.6,2-1.9,3.1c1.2,1.6,2.1,2.9,3,3.6
		c0.8,0.8,1.2,0.9,1.4,0.9c0.1,0,0.2,0,0.3,0s0.2,0.1,0.2,0.1c0,0.1-0.1,0.1-0.3,0.1h-1.3c-0.8,0-1.1-0.1-1.5-0.3
		c-0.6-0.3-1.1-1-1.8-2.1c-0.5-0.8-1.1-1.7-1.3-1.9c-0.1-0.1-0.2-0.1-0.2-0.1h-1.2c-0.1,0-0.1,0-0.1,0.1v0.2c0,1.3,0,2.4,0.1,3
		c0,0.4,0.1,0.7,0.5,0.7c0.2,0,0.5,0,0.7,0c0.1,0,0.2,0.1,0.2,0.1c0,0.1-0.1,0.1-0.3,0.1c-0.8,0-1.9,0-2.1,0c-0.3,0-1.1,0-1.7,0
		c-0.2,0-0.3,0-0.3-0.1s0-0.1,0.2-0.1s0.4,0,0.5,0c0.3-0.1,0.4-0.3,0.4-0.7c0.1-0.6,0.1-1.7,0.1-3L93.7,60.2L93.7,60.2z M95.4,61.2
		c0,0.1,0,0.2,0.1,0.2c0.3,0.1,0.7,0.1,1,0.1c0.5,0,0.7,0,1-0.2c0.4-0.3,0.9-0.9,0.9-2.1c0-2-1.3-2.5-2.1-2.5c-0.3,0-0.7,0-0.8,0
		c-0.1,0-0.1,0.1-0.1,0.2V61.2z"/>
	<path class="st0" d="M104.9,60.2c0-2.1,0-2.5,0-3s-0.2-0.6-0.5-0.7c-0.2,0-0.3-0.1-0.5-0.1c-0.1,0-0.2,0-0.2-0.2
		c0-0.1,0.1-0.1,0.3-0.1c0.5,0,1.4,0,1.8,0c0.3,0,1.2,0,1.7,0c0.2,0,0.3,0,0.3,0.1s-0.1,0.2-0.2,0.2s-0.2,0-0.4,0
		c-0.4,0.1-0.5,0.3-0.5,0.8c0,0.4,0,0.8,0,3v2.5c0,1.3,0,2.5,0.1,3.1c0,0.4,0.1,0.6,0.5,0.7c0.2,0,0.5,0,0.7,0s0.2,0.1,0.2,0.1
		c0,0.1-0.1,0.1-0.3,0.1c-0.9,0-1.8,0-2.2,0c-0.3,0-1.2,0-1.8,0c-0.2,0-0.3,0-0.3-0.1s0-0.1,0.2-0.1s0.4,0,0.5,0
		c0.3-0.1,0.4-0.3,0.4-0.7c0.1-0.6,0.1-1.7,0.1-3L104.9,60.2L104.9,60.2z"/>
	<path class="st0" d="M111.8,60.2c0-2.1,0-2.5,0-3s-0.2-0.6-0.6-0.8c-0.1,0-0.3,0-0.5,0c-0.1,0-0.2,0-0.2-0.1s0.1-0.1,0.3-0.1
		c0.7,0,1.6,0,1.8,0c0.7,0,1.6,0,2,0c2.4,0,2.9,1.3,2.9,2.1c0,1.1-0.8,1.9-1.5,2.5c1.1,0.4,2.5,1.4,2.5,3c0,1.5-1.1,3-3.5,3
		c-0.2,0-0.6,0-1.1,0s-0.9,0-1.2,0c-0.2,0-0.4,0-0.8,0c-0.3,0-0.7,0-0.9,0c-0.2,0-0.3,0-0.3-0.1s0-0.1,0.2-0.1s0.4,0,0.5,0
		c0.3-0.1,0.4-0.3,0.4-0.7c0.1-0.6,0.1-1.7,0.1-3C111.8,62.9,111.8,60.2,111.8,60.2z M113.5,60.4C113.5,60.5,113.5,60.5,113.5,60.4
		c0.2,0.1,0.4,0.1,0.7,0.1c0.4,0,0.8,0,1.1-0.2c0.4-0.3,0.6-0.8,0.6-1.5c0-0.9-0.5-2.1-1.7-2.1c-0.2,0-0.4,0-0.6,0
		c-0.1,0-0.1,0.1-0.1,0.2V60.4z M113.5,64.5c0,0.9,0,1.2,0.5,1.4c0.4,0.1,0.7,0.2,1,0.2c0.7,0,1.7-0.4,1.7-2c0-0.6-0.3-1.7-1.3-2.5
		c-0.3-0.2-0.6-0.4-1.2-0.4h-0.6c0,0-0.1,0-0.1,0.1V64.5z"/>
	<path class="st0" d="M121.6,60.2c0-2.1,0-2.5,0-3s-0.2-0.6-0.6-0.8c-0.1,0-0.3,0-0.5,0s-0.2,0-0.2-0.1s0.1-0.1,0.3-0.1
		c0.7,0,1.6,0,2,0c0.3,0,1.2,0,1.7,0c0.2,0,0.3,0,0.3,0.1s-0.1,0.1-0.2,0.1c-0.2,0-0.2,0-0.4,0c-0.4,0.1-0.5,0.3-0.5,0.8
		c0,0.4,0,0.8,0,3v2c0,2,0.4,2.8,1,3.4c0.6,0.5,1.2,0.6,1.7,0.6c0.6,0,1.3-0.2,1.8-0.7c0.8-0.8,0.8-2,0.8-3.4v-1.8c0-2.1,0-2.5,0-3
		s-0.1-0.6-0.6-0.8c-0.1,0-0.3,0-0.5,0s-0.2,0-0.2-0.1s0.1-0.1,0.3-0.1c0.7,0,1.6,0,1.6,0c0.2,0,1.1,0,1.6,0c0.2,0,0.3,0,0.3,0.1
		s-0.1,0.1-0.2,0.1c-0.2,0-0.2,0-0.4,0c-0.4,0.1-0.5,0.3-0.5,0.8c0,0.4,0,0.8,0,3v1.4c0,1.6-0.2,3.2-1.3,4.1c-1,0.9-2,1-2.9,1
		c-0.7,0-2.1,0-3.1-1c-0.7-0.6-1.2-1.7-1.2-3.6L121.6,60.2L121.6,60.2z"/>
	<path class="st0" d="M136.2,57.1h-2c-0.8,0-1.1,0.1-1.3,0.4c-0.1,0.2-0.2,0.4-0.2,0.5s-0.1,0.2-0.2,0.2c-0.1,0-0.1-0.1-0.1-0.2
		c0-0.2,0.3-1.6,0.3-1.7c0-0.2,0.1-0.3,0.2-0.3c0.1,0,0.2,0.1,0.6,0.2c0.4,0,0.9,0.1,1.4,0.1h5.4c0.4,0,0.7,0,0.9-0.1
		c0.2,0,0.3-0.1,0.4-0.1c0.1,0,0.1,0.1,0.1,0.3c0,0.3,0,1.3,0,1.7c0,0.1,0,0.2-0.1,0.2s-0.1-0.1-0.2-0.3v-0.1c0-0.4-0.4-0.8-1.6-0.8
		h-1.7v5.6c0,1.3,0,2.4,0.1,3c0,0.4,0.1,0.7,0.5,0.7c0.2,0,0.5,0,0.7,0s0.2,0.1,0.2,0.1c0,0.1-0.1,0.1-0.3,0.1c-0.9,0-1.8,0-2.2,0
		c-0.3,0-1.2,0-1.8,0c-0.2,0-0.3,0-0.3-0.1s0-0.1,0.2-0.1s0.4,0,0.5,0c0.3-0.1,0.4-0.3,0.4-0.7c0.1-0.6,0.1-1.7,0.1-3L136.2,57.1
		L136.2,57.1z"/>
	<path class="st0" d="M143.2,61.4c0-2.4,1.6-5.4,5.6-5.4c3.4,0,5.4,2,5.4,5.1c0,3.2-2.2,5.6-5.6,5.6
		C144.8,66.8,143.2,63.9,143.2,61.4z M152.2,61.7c0-3.1-1.7-4.9-3.8-4.9c-1.5,0-3.3,0.9-3.3,4.2c0,2.9,1.5,5.1,4,5.1
		C150.1,66.1,152.2,65.6,152.2,61.7z"/>
	<path class="st0" d="M157.4,60.2c0-2.1,0-2.5,0-3s-0.2-0.6-0.6-0.8c-0.1,0-0.3,0-0.5,0c-0.1,0-0.2,0-0.2-0.1s0.1-0.1,0.3-0.1
		c0.7,0,1.6,0,1.8,0c0.5,0,1.7,0,2.1,0c0.9,0,1.8,0.1,2.6,0.6c0.4,0.3,1,1,1,1.9c0,1-0.6,2-1.9,3.1c1.2,1.6,2.1,2.9,3,3.6
		c0.8,0.8,1.2,0.9,1.4,0.9c0.1,0,0.2,0,0.3,0s0.2,0.1,0.2,0.1c0,0.1-0.1,0.1-0.3,0.1h-1.3c-0.8,0-1.1-0.1-1.5-0.3
		c-0.6-0.3-1.1-1-1.8-2.1c-0.5-0.8-1.1-1.7-1.3-1.9c-0.1-0.1-0.2-0.1-0.2-0.1h-1.2c-0.1,0-0.1,0-0.1,0.1v0.2c0,1.3,0,2.4,0.1,3
		c0,0.4,0.1,0.7,0.5,0.7c0.2,0,0.5,0,0.7,0c0.1,0,0.2,0.1,0.2,0.1c0,0.1-0.1,0.1-0.3,0.1c-0.8,0-1.9,0-2.1,0c-0.3,0-1.1,0-1.7,0
		c-0.2,0-0.3,0-0.3-0.1s0-0.1,0.2-0.1s0.4,0,0.5,0c0.3-0.1,0.4-0.3,0.4-0.7c0.1-0.6,0.1-1.7,0.1-3L157.4,60.2L157.4,60.2z
		 M159.2,61.2c0,0.1,0,0.2,0.1,0.2c0.3,0.1,0.7,0.1,1,0.1c0.5,0,0.7,0,1-0.2c0.4-0.3,0.9-0.9,0.9-2.1c0-2-1.3-2.5-2.1-2.5
		c-0.3,0-0.7,0-0.8,0s-0.1,0.1-0.1,0.2L159.2,61.2L159.2,61.2z"/>
</g>
<g>
	<path class="st0" d="M85.8,97c0-1.5-0.3-2.1-0.6-2.8c-0.2-0.4-3.5-6.3-4.4-7.7c-0.6-1-1.3-1.7-1.7-2c-0.3-0.2-0.8-0.4-1.1-0.4
		c-0.2,0-0.4-0.1-0.4-0.2c0-0.2,0.2-0.2,0.5-0.2c0.5,0,2.4,0.1,3.2,0.1c0.5,0,1.6-0.1,2.7-0.1c0.3,0,0.4,0.1,0.4,0.2
		c0,0.2-0.2,0.2-0.6,0.3c-0.2,0.1-0.4,0.3-0.4,0.5s0.1,0.5,0.3,0.9c0.4,0.8,3.8,7.3,4.2,8c0.3-0.7,3.4-6.5,3.7-7.4
		c0.3-0.6,0.4-1.1,0.4-1.4s-0.1-0.6-0.5-0.7C91.3,84,91,84,91,83.8c0-0.2,0.1-0.2,0.4-0.2c0.8,0,1.6,0.1,2.4,0.1
		c0.6,0,2.2-0.1,2.7-0.1c0.3,0,0.5,0.1,0.5,0.2c0,0.2-0.2,0.3-0.5,0.3s-0.7,0.1-1.1,0.3c-0.5,0.3-0.8,0.6-1.4,1.3
		c-0.8,1.1-4.3,7.4-4.7,8.5c-0.4,1-0.4,1.8-0.4,2.7v2.3c0,0.4,0,1.6,0.1,2.7c0,0.8,0.3,1.4,1,1.5c0.4,0.1,0.9,0.1,1.3,0.1
		c0.3,0,0.4,0.1,0.4,0.2c0,0.2-0.2,0.3-0.5,0.3c-1.6,0-3.2-0.1-3.8-0.1c-0.6,0-2.2,0.1-3.2,0.1c-0.4,0-0.6-0.1-0.6-0.3
		c0-0.1,0.1-0.2,0.4-0.2c0.4,0,0.7-0.1,0.9-0.1c0.5-0.1,0.7-0.7,0.8-1.5c0.1-1.1,0.1-2.3,0.1-2.7L85.8,97L85.8,97z"/>
	<path class="st0" d="M99.9,94.5c0-3.1,0-3.6,0-4.2c0-0.7-0.2-1-0.8-1.2c-0.2,0-0.5-0.1-0.7-0.1s-0.3,0-0.3-0.2
		c0-0.1,0.1-0.2,0.4-0.2c0.5,0,1.1,0,1.5,0c0.5,0,0.9,0,1.2,0c0.6,0,4.3,0,4.7,0s0.7-0.1,0.8-0.1c0.1,0,0.2-0.1,0.3-0.1
		c0.1,0,0.1,0.1,0.1,0.2s-0.1,0.4-0.2,1.3c0,0.2-0.1,1.1-0.1,1.3c0,0.1-0.1,0.2-0.2,0.2s-0.2-0.1-0.2-0.3c0-0.1,0-0.5-0.1-0.7
		c-0.1-0.4-0.3-0.6-1.3-0.7c-0.3,0-2.3-0.1-2.7-0.1c-0.1,0-0.1,0.1-0.1,0.2v5.1c0,0.1,0,0.2,0.1,0.2c0.4,0,2.6,0,3,0
		c0.5,0,0.7-0.1,0.9-0.3c0.1-0.2,0.2-0.3,0.3-0.3c0.1,0,0.1,0,0.1,0.2c0,0.1-0.1,0.4-0.2,1.5c0,0.4-0.1,1.2-0.1,1.4
		c0,0.2,0,0.4-0.2,0.4c-0.1,0-0.2-0.1-0.2-0.2c0-0.2,0-0.5-0.1-0.7c-0.1-0.4-0.4-0.7-1.1-0.8c-0.4,0-2.2-0.1-2.7-0.1
		c-0.1,0-0.1,0.1-0.1,0.2V98c0,0.7,0,2.6,0,3.2c0,1.4,0.3,1.7,2.3,1.7c0.5,0,1.3,0,1.8-0.2s0.7-0.7,0.9-1.5c0-0.2,0.1-0.3,0.2-0.3
		c0.2,0,0.2,0.2,0.2,0.4c0,0.5-0.2,1.9-0.2,2.3c-0.1,0.5-0.3,0.5-1,0.5c-1.4,0-2.5,0-3.3-0.1c-0.8,0-1.4-0.1-2-0.1
		c-0.2,0-0.6,0-1.1,0c-0.4,0-0.9,0-1.3,0c-0.2,0-0.4-0.1-0.4-0.2s0.1-0.2,0.3-0.2c0.3,0,0.5,0,0.7-0.1c0.4-0.1,0.5-0.5,0.6-1.1
		c0.1-0.9,0.1-2.5,0.1-4.2L99.9,94.5L99.9,94.5z"/>
	<path class="st0" d="M113.4,98.6c-0.1,0-0.1,0-0.2,0.2l-1,2.9c-0.2,0.5-0.3,1-0.3,1.2c0,0.4,0.2,0.6,0.8,0.6h0.3
		c0.2,0,0.3,0,0.3,0.2s-0.1,0.2-0.3,0.2c-0.6,0-1.4-0.1-2-0.1c-0.2,0-1.3,0.1-2.2,0.1c-0.2,0-0.4,0-0.4-0.2c0-0.1,0.1-0.2,0.2-0.2
		c0.2,0,0.4,0,0.6,0c0.9-0.1,1.2-0.8,1.6-1.8l4.7-12.6c0.2-0.6,0.3-0.8,0.5-0.8s0.3,0.2,0.5,0.7c0.5,1.1,3.4,9.3,4.6,12.3
		c0.7,1.8,1.3,2.1,1.7,2.2c0.3,0.1,0.6,0.1,0.8,0.1c0.2,0,0.2,0,0.2,0.2s-0.2,0.2-0.9,0.2c-0.7,0-2.1,0-3.5,0c-0.3,0-0.6,0-0.6-0.2
		c0-0.1,0.1-0.2,0.3-0.2c0.1,0,0.3-0.2,0.2-0.5l-1.5-4.2c0-0.1-0.1-0.1-0.2-0.1L113.4,98.6L113.4,98.6z M117.2,97.6
		C117.3,97.6,117.3,97.5,117.2,97.6l-1.6-5c0-0.1,0-0.2-0.1-0.2s-0.1,0.1-0.1,0.2l-1.8,4.9c0,0.1,0,0.1,0.1,0.1H117.2z"/>
	<path class="st0" d="M126.8,94.5c0-3.1,0-3.6,0-4.2c0-0.7-0.2-1-0.8-1.2c-0.2,0-0.5-0.1-0.7-0.1s-0.3,0-0.3-0.2
		c0-0.1,0.1-0.2,0.4-0.2c1,0,2.2,0.1,2.6,0.1c0.6,0,2.1-0.1,2.7-0.1c1.2,0,2.5,0.1,3.4,0.9c0.5,0.4,1.3,1.4,1.3,2.8
		c0,1.5-0.6,2.9-2.5,4.5c1.7,2.3,3,4,4,5.3c1.1,1.2,1.8,1.3,2.1,1.4c0.2,0,0.4,0.1,0.5,0.1c0.2,0,0.2,0.1,0.2,0.2
		c0,0.2-0.1,0.2-0.4,0.2h-1.8c-1.1,0-1.5-0.1-2-0.4c-0.8-0.5-1.5-1.4-2.6-3c-0.8-1.1-1.6-2.5-1.9-2.8c-0.1-0.1-0.2-0.1-0.3-0.1H129
		c-0.1,0-0.2,0-0.2,0.2v0.3c0,1.9,0,3.4,0.1,4.3c0.1,0.6,0.2,1,0.7,1.1c0.3,0,0.7,0.1,0.9,0.1s0.2,0.1,0.2,0.2s-0.1,0.2-0.4,0.2
		c-1.1,0-2.5-0.1-2.8-0.1c-0.4,0-1.6,0.1-2.3,0.1c-0.2,0-0.4-0.1-0.4-0.2s0.1-0.2,0.3-0.2c0.3,0,0.5,0,0.7-0.1
		c0.4-0.1,0.5-0.5,0.6-1.1c0.1-0.9,0.1-2.5,0.1-4.2L126.8,94.5L126.8,94.5z M128.9,96.1c0,0.2,0,0.3,0.2,0.4c0.4,0.1,1,0.2,1.4,0.2
		c0.8,0,1-0.1,1.4-0.3c0.6-0.4,1.1-1.4,1.1-3.1c0-2.9-1.8-3.6-2.9-3.6c-0.5,0-0.8,0-1,0.1c-0.1,0-0.2,0.1-0.2,0.3V96.1z"/>
</g>
<g>
	<path class="st0" d="M91.2,73.7c0-1.9,1.2-4.3,4.4-4.3c2.7,0,4.3,1.6,4.3,4.1c0,2.6-1.7,4.5-4.4,4.5C92.5,78.1,91.2,75.7,91.2,73.7
		z M98.4,74c0-2.5-1.4-3.9-3.1-3.9c-1.2,0-2.6,0.7-2.6,3.4c0,2.3,1.2,4,3.3,4C96.7,77.5,98.4,77.1,98.4,74z"/>
	<path class="st0" d="M104,74.8c0,1.1,0,1.9,0.1,2.3c0,0.3,0.1,0.5,0.4,0.6c0.1,0,0.4,0,0.5,0s0.2,0.1,0.2,0.1
		c0,0.1-0.1,0.1-0.2,0.1c-0.7,0-1.4,0-1.7,0c-0.3,0-1,0-1.4,0c-0.1,0-0.2,0-0.2-0.1s0-0.1,0.2-0.1s0.3,0,0.4,0
		c0.2-0.1,0.3-0.3,0.3-0.6c0-0.5,0-1.3,0-2.4v-2c0-1.7,0-2,0-2.4s-0.1-0.5-0.5-0.6c-0.1,0-0.3,0-0.4,0s-0.2,0-0.2-0.1
		s0.1-0.1,0.3-0.1c0.6,0,1.2,0,1.5,0c0.4,0,2.8,0,3.1,0c0.2,0,0.3,0,0.4-0.1c0.1,0,0.1-0.1,0.2-0.1l0.1,0.1c0,0.1,0,0.2-0.1,0.5
		c0,0.1,0,0.8,0,0.9s0,0.2-0.1,0.2s-0.1-0.1-0.1-0.2s0-0.3-0.1-0.4c-0.1-0.2-0.3-0.3-0.7-0.3h-1.8c-0.1,0-0.1,0-0.1,0.2V73
		c0,0.1,0,0.1,0.1,0.1h1.5c0.2,0,0.3,0,0.5,0s0.4-0.1,0.5-0.2s0.1-0.1,0.1-0.1s0.1,0,0.1,0.1s0,0.4-0.1,0.7c0,0.2,0,0.7,0,0.8
		s0,0.2-0.1,0.2s-0.1-0.1-0.1-0.2s0-0.2-0.1-0.3c0-0.2-0.2-0.4-0.5-0.4s-1.5,0-1.7,0c0,0-0.1,0-0.1,0.1v1
		C104.2,74.8,104,74.8,104,74.8z"/>
</g>
<g>
	<path class="st0" d="M109.6,78.5h-1.8c-0.7,0-1,0.1-1.1,0.3c-0.1,0.2-0.2,0.3-0.2,0.4s-0.1,0.1-0.1,0.1c-0.1,0-0.1-0.1-0.1-0.2
		c0-0.2,0.2-1.2,0.2-1.3c0-0.2,0.1-0.2,0.1-0.2c0.1,0,0.2,0.1,0.5,0.1s0.8,0.1,1.2,0.1h4.6c0.4,0,0.6,0,0.8-0.1
		c0.2,0,0.3-0.1,0.3-0.1c0.1,0,0.1,0.1,0.1,0.2c0,0.2,0,1,0,1.3c0,0.1,0,0.2-0.1,0.2s-0.1-0.1-0.1-0.2V79c0-0.3-0.3-0.6-1.4-0.7H111
		V83c0,1.1,0,2,0.1,2.5c0,0.3,0.1,0.6,0.5,0.6c0.2,0,0.4,0,0.6,0c0.1,0,0.2,0,0.2,0.1s-0.1,0.1-0.2,0.1c-0.8,0-1.5,0-1.9,0
		c-0.3,0-1,0-1.5,0c-0.2,0-0.2,0-0.2-0.1s0-0.1,0.2-0.1s0.3,0,0.4,0c0.2,0,0.3-0.3,0.3-0.6c0.1-0.5,0.1-1.4,0.1-2.5V78.5L109.6,78.5
		z"/>
	<path class="st0" d="M122.8,81.5C122.9,81.5,122.9,81.5,122.8,81.5l0.1-0.3c0-1.8,0-2.1,0-2.5s-0.1-0.6-0.5-0.7c-0.1,0-0.3,0-0.5,0
		c-0.1,0-0.2,0-0.2-0.1s0.1-0.1,0.2-0.1c0.6,0,1.4,0,1.7,0c0.3,0,1,0,1.5,0c0.2,0,0.2,0,0.2,0.1s-0.1,0.1-0.2,0.1s-0.2,0-0.3,0
		c-0.3,0.1-0.4,0.3-0.4,0.7c0,0.4,0,0.7,0,2.5v2c0,1.1,0,2,0.1,2.5c0,0.3,0.1,0.6,0.5,0.6c0.2,0,0.4,0,0.6,0c0.1,0,0.2,0,0.2,0.1
		s-0.1,0.1-0.2,0.1c-0.8,0-1.5,0-1.8,0s-1,0-1.5,0c-0.2,0-0.2,0-0.2-0.1s0-0.1,0.2-0.1s0.3,0,0.4,0c0.2,0,0.3-0.3,0.3-0.6
		c0.1-0.5,0.1-1.4,0.1-2.5v-1c0,0,0-0.1-0.1-0.1h-4.4c0,0-0.1,0-0.1,0.1v1c0,1.1,0,2,0.1,2.5c0,0.3,0.1,0.6,0.5,0.6
		c0.2,0,0.4,0,0.6,0c0.1,0,0.2,0,0.2,0.1s-0.1,0.1-0.2,0.1c-0.8,0-1.5,0-1.8,0s-1,0-1.5,0c-0.2,0-0.2,0-0.2-0.1s0-0.1,0.2-0.1
		s0.3,0,0.4,0c0.2,0,0.3-0.3,0.3-0.6c0.1-0.5,0.1-1.4,0.1-2.5v-2c0-1.8,0-2.1,0-2.5s-0.1-0.6-0.5-0.7c-0.1,0-0.3,0-0.5,0
		c-0.1,0-0.2,0-0.2-0.1s0.1-0.1,0.2-0.1c0.6,0,1.4,0,1.7,0c0.3,0,1,0,1.5,0c0.2,0,0.2,0,0.2,0.1s-0.1,0.1-0.2,0.1s-0.2,0-0.3,0
		c-0.3,0.1-0.4,0.3-0.4,0.7c0,0.4,0,0.7,0,2.5v0.2c0,0.1,0,0.1,0.1,0.1C118.8,81.5,122.8,81.5,122.8,81.5z"/>
	<path class="st0" d="M128.7,81.2c0-1.8,0-2.1,0-2.5s-0.1-0.6-0.5-0.7c-0.1,0-0.3,0-0.5,0c-0.1,0-0.2,0-0.2-0.1s0.1-0.1,0.3-0.1
		c0.3,0,0.7,0,1,0s0.6,0,0.7,0c0.4,0,2.7,0,2.9,0s0.4,0,0.5-0.1c0.1,0,0.1,0,0.2,0c0.1,0,0.1,0,0.1,0.1s-0.1,0.2-0.1,0.8
		c0,0.1,0,0.6-0.1,0.8c0,0.1,0,0.1-0.1,0.1s-0.1-0.1-0.1-0.2s0-0.3-0.1-0.4c-0.1-0.2-0.2-0.3-0.8-0.4c-0.2,0-1.4,0-1.7,0
		c-0.1,0-0.1,0-0.1,0.1v2.9c0,0.1,0,0.1,0.1,0.1c0.3,0,1.6,0,1.9,0c0.3,0,0.5-0.1,0.6-0.2s0.1-0.2,0.2-0.2c0,0,0.1,0,0.1,0.1
		s0,0.3-0.1,0.8c0,0.2,0,0.7,0,0.8s0,0.2-0.1,0.2s-0.1,0-0.1-0.1s0-0.3,0-0.4c-0.1-0.2-0.2-0.4-0.7-0.5c-0.2,0-1.4,0-1.7,0
		c-0.1,0-0.1,0-0.1,0.1v0.9c0,0.4,0,1.5,0,1.8c0,0.8,0.2,1,1.4,1c0.3,0,0.8,0,1.1-0.1s0.4-0.4,0.5-0.9c0-0.1,0-0.2,0.1-0.2
		s0.1,0.1,0.1,0.2c0,0.3-0.1,1.1-0.2,1.3c-0.1,0.3-0.2,0.3-0.6,0.3c-0.9,0-1.5,0-2,0s-0.9,0-1.2,0c-0.1,0-0.4,0-0.7,0s-0.6,0-0.8,0
		s-0.2,0-0.2-0.1s0-0.1,0.2-0.1s0.3,0,0.4,0c0.2,0,0.3-0.3,0.3-0.6c0.1-0.5,0.1-1.4,0.1-2.5L128.7,81.2L128.7,81.2z"/>
</g>
<g>
	<g>
		<path class="st0" d="M59,196.9c-0.3-0.8-0.5-1.3-0.8-1.6c-0.2-0.2-0.7-0.2-0.9-0.2s-0.4,0-0.4-0.2s0.2-0.2,0.5-0.2
			c1.1,0,2.4,0.1,2.6,0.1s1.2-0.1,2.4-0.1c0.3,0,0.5,0.1,0.5,0.2c0,0.2-0.2,0.2-0.4,0.2s-0.4,0-0.6,0.1c-0.2,0.1-0.2,0.2-0.2,0.5
			s0.2,1,0.5,2c0.4,1.5,2.4,8,2.8,9.3l0,0l4.2-11.3c0.2-0.6,0.4-0.8,0.6-0.8s0.4,0.3,0.6,1l4.5,10.9H75c0.4-1.5,2.2-7.2,2.9-9.8
			c0.2-0.5,0.2-1,0.2-1.3c0-0.4-0.2-0.7-1.1-0.7c-0.2,0-0.4-0.1-0.4-0.2c0-0.2,0.2-0.2,0.5-0.2c1.2,0,2.1,0.1,2.3,0.1
			c0.2,0,1.1-0.1,1.8-0.1c0.2,0,0.4,0,0.4,0.2s-0.1,0.2-0.3,0.2c-0.2,0-0.5,0-0.8,0.1c-0.5,0.2-0.8,1.1-1.2,2.3
			c-1,2.8-3.3,9.7-4.3,12.9c-0.2,0.8-0.4,1-0.6,1s-0.4-0.3-0.7-1.1l-4.5-10.8l0,0c-0.4,1.1-3.3,8.8-4.2,10.8
			c-0.4,0.9-0.5,1.2-0.8,1.2c-0.2,0-0.3-0.2-0.5-0.8L59,196.9z"/>
		<path class="st0" d="M84.4,201.1c0-3.4,0-3.9,0-4.6c0-0.7-0.3-1.1-0.8-1.2c-0.2-0.1-0.5-0.1-0.8-0.1c-0.2,0-0.4,0-0.4-0.2
			c0-0.1,0.2-0.2,0.5-0.2c0.8,0,2.2,0.1,2.9,0.1c0.6,0,1.9-0.1,2.7-0.1c0.3,0,0.5,0,0.5,0.2s-0.1,0.2-0.4,0.2c-0.2,0-0.4,0-0.7,0.1
			c-0.6,0.1-0.8,0.5-0.8,1.3c0,0.7,0,1.3,0,4.6v3.8c0,2.1,0,3.8,0.1,4.7c0.1,0.6,0.2,1,0.9,1.1c0.3,0,0.8,0.1,1.1,0.1
			c0.2,0,0.4,0.1,0.4,0.2c0,0.2-0.2,0.2-0.4,0.2c-1.5,0-2.8-0.1-3.4-0.1c-0.5,0-1.9,0.1-2.8,0.1c-0.3,0-0.4-0.1-0.4-0.2
			s0.1-0.2,0.4-0.2s0.6,0,0.8-0.1c0.4-0.1,0.6-0.5,0.6-1.1c0.1-0.9,0.1-2.7,0.1-4.7L84.4,201.1L84.4,201.1z"/>
		<path class="st0" d="M95.4,208.2c0,1.7,0.3,2.3,0.8,2.4c0.4,0.1,0.8,0.2,1.1,0.2c0.2,0,0.4,0,0.4,0.2s-0.2,0.2-0.5,0.2
			c-1.4,0-2.3-0.1-2.7-0.1c-0.2,0-1.2,0.1-2.4,0.1c-0.3,0-0.5,0-0.5-0.2c0-0.1,0.1-0.2,0.4-0.2s0.7,0,1-0.1c0.6-0.2,0.7-0.8,0.7-2.7
			l0.2-12.9c0-0.4,0.1-0.8,0.3-0.8c0.2,0,0.4,0.3,0.8,0.7c0.3,0.3,3.5,3.8,6.7,7c1.5,1.5,4.4,4.6,4.8,4.9h0.1l-0.2-9.8
			c0-1.3-0.2-1.8-0.8-2c-0.3-0.1-0.9-0.1-1.2-0.1c-0.3,0-0.4-0.1-0.4-0.2c0-0.2,0.2-0.2,0.6-0.2c1.1,0,2.2,0.1,2.7,0.1
			c0.2,0,1.1-0.1,2.2-0.1c0.3,0,0.5,0,0.5,0.2c0,0.1-0.1,0.2-0.4,0.2c-0.2,0-0.4,0-0.7,0.1c-0.6,0.2-0.8,0.6-0.8,1.9l-0.2,13.7
			c0,0.5-0.1,0.7-0.3,0.7c-0.2,0-0.5-0.2-0.7-0.5c-1.4-1.3-4.1-4.1-6.4-6.4c-2.4-2.4-4.8-5-5.1-5.5h-0.2L95.4,208.2z"/>
		<path class="st0" d="M116,208.2c0,1.7,0.3,2.3,0.8,2.4c0.4,0.1,0.8,0.2,1.1,0.2c0.2,0,0.4,0,0.4,0.2s-0.2,0.2-0.5,0.2
			c-1.4,0-2.3-0.1-2.7-0.1c-0.2,0-1.2,0.1-2.4,0.1c-0.3,0-0.5,0-0.5-0.2c0-0.1,0.1-0.2,0.4-0.2s0.7,0,1-0.1c0.6-0.2,0.7-0.8,0.7-2.7
			l0.2-12.9c0-0.4,0.1-0.8,0.3-0.8c0.2,0,0.4,0.3,0.8,0.7c0.3,0.3,3.5,3.8,6.7,7c1.5,1.5,4.4,4.6,4.8,4.9h0.1l-0.2-9.8
			c0-1.3-0.2-1.8-0.8-2c-0.3-0.1-0.9-0.1-1.2-0.1c-0.3,0-0.4-0.1-0.4-0.2c0-0.2,0.2-0.2,0.6-0.2c1.1,0,2.2,0.1,2.7,0.1
			c0.2,0,1.1-0.1,2.2-0.1c0.3,0,0.5,0,0.5,0.2c0,0.1-0.1,0.2-0.4,0.2c-0.2,0-0.4,0-0.7,0.1c-0.6,0.2-0.8,0.6-0.8,1.9l-0.2,13.7
			c0,0.5-0.1,0.7-0.3,0.7s-0.5-0.2-0.7-0.5c-1.4-1.3-4.1-4.1-6.4-6.4c-2.4-2.4-4.8-5-5.1-5.5h-0.1L116,208.2z"/>
		<path class="st0" d="M135.3,201.1c0-3.4,0-3.9,0-4.6c0-0.7-0.2-1.1-0.9-1.3c-0.2,0-0.6-0.1-0.9-0.1c-0.2,0-0.4,0-0.4-0.2
			s0.2-0.2,0.5-0.2c0.6,0,1.2,0,1.8,0s1.1,0,1.4,0c0.7,0,5,0,5.4,0s0.8-0.1,0.9-0.1c0.1,0,0.2-0.1,0.4-0.1c0.1,0,0.1,0.1,0.1,0.2
			c0,0.2-0.1,0.4-0.2,1.4c0,0.2-0.1,1.2-0.1,1.5c0,0.1-0.1,0.2-0.2,0.2c-0.2,0-0.2-0.1-0.2-0.3s0-0.5-0.1-0.8
			c-0.2-0.4-0.4-0.7-1.5-0.8c-0.4,0-2.7-0.1-3.1-0.1c-0.1,0-0.2,0.1-0.2,0.2v5.5c0,0.2,0,0.2,0.2,0.2c0.5,0,3,0,3.4,0
			c0.5,0,0.9-0.1,1.1-0.3c0.2-0.2,0.2-0.3,0.4-0.3c0.1,0,0.2,0,0.2,0.2s-0.1,0.5-0.2,1.6c0,0.4-0.1,1.3-0.1,1.5s0,0.4-0.2,0.4
			s-0.2-0.1-0.2-0.2c0-0.2,0-0.5-0.1-0.8c-0.1-0.4-0.4-0.8-1.2-0.9c-0.4,0-2.6-0.1-3.1-0.1c-0.1,0-0.1,0.1-0.1,0.2v1.7
			c0,0.8,0,2.8,0,3.4c0,1.5,0.4,1.9,2.6,1.9c0.6,0,1.5,0,2.1-0.3s0.8-0.7,1-1.6c0-0.2,0.1-0.3,0.2-0.3c0.2,0,0.2,0.2,0.2,0.4
			c0,0.5-0.2,2-0.3,2.4c-0.2,0.6-0.4,0.6-1.2,0.6c-1.7,0-2.9,0-3.7-0.1c-0.9,0-1.6-0.1-2.3-0.1c-0.2,0-0.7,0-1.3,0
			c-0.5,0-1.1,0-1.5,0c-0.3,0-0.4-0.1-0.4-0.2c0-0.1,0.1-0.2,0.4-0.2c0.3,0,0.6,0,0.8-0.1c0.4-0.1,0.6-0.6,0.6-1.2
			c0.1-0.9,0.1-2.7,0.1-4.6v-3.4h-0.1V201.1z"/>
		<path class="st0" d="M149.1,201.1c0-3.4,0-3.9,0-4.6c0-0.7-0.2-1.1-0.9-1.3c-0.2,0-0.6-0.1-0.9-0.1c-0.2,0-0.4,0-0.4-0.2
			s0.2-0.2,0.5-0.2c1.2,0,2.6,0.1,3,0.1c0.7,0,2.4-0.1,3.1-0.1c1.4,0,2.9,0.1,4,0.9c0.6,0.4,1.5,1.5,1.5,3c0,1.6-0.7,3.1-2.9,4.8
			c2,2.5,3.4,4.3,4.7,5.7c1.2,1.3,2.1,1.4,2.5,1.5c0.2,0,0.4,0.1,0.6,0.1c0.2,0,0.3,0.1,0.3,0.2c0,0.2-0.2,0.2-0.4,0.2h-2.1
			c-1.2,0-1.8-0.1-2.4-0.4c-0.9-0.5-1.8-1.5-3-3.2c-0.9-1.2-1.9-2.7-2.2-3c-0.1-0.1-0.2-0.2-0.4-0.2H152c-0.1,0-0.2,0-0.2,0.2v0.3
			c0,2.1,0,3.7,0.1,4.6c0.1,0.6,0.2,1.1,0.9,1.2c0.3,0,0.8,0.1,1.1,0.1c0.2,0,0.3,0.1,0.3,0.2c0,0.2-0.2,0.2-0.4,0.2
			c-1.3,0-2.9-0.1-3.2-0.1c-0.4,0-1.8,0.1-2.7,0.1c-0.3,0-0.4-0.1-0.4-0.2c0-0.1,0.1-0.2,0.4-0.2s0.6,0,0.8-0.1
			c0.4-0.1,0.6-0.6,0.6-1.2c0.1-0.9,0.1-2.7,0.1-4.6v-3.7H149.1z M151.7,202.8c0,0.2,0,0.3,0.2,0.4c0.5,0.2,1.1,0.2,1.7,0.2
			c0.9,0,1.2-0.1,1.6-0.4c0.7-0.5,1.3-1.5,1.3-3.3c0-3.1-2.1-3.9-3.4-3.9c-0.6,0-0.9,0-1.2,0.1c-0.2,0-0.2,0.1-0.2,0.3L151.7,202.8
			L151.7,202.8z"/>
	</g>
</g>
<g>
	<path class="st1" d="M72.8,162.4c1.1,0.2,1.8,0.7,2.4,1.5c0.5,0.8,0.7,1.6,0.6,2.4c-0.2,1.2-0.9,2-1.9,2.4c0.6,0.4,1,0.9,1.3,1.6
		c0.3,0.6,0.4,1.3,0.2,2c-0.2,1.1-0.8,1.9-1.8,2.5s-2.1,0.8-3.3,0.6c-1.2-0.2-2.2-0.8-2.8-1.6c-0.7-0.9-0.9-1.7-0.8-2.5
		c0.1-0.3,0.3-0.6,0.6-0.8c0.3-0.2,0.6-0.2,0.9-0.2c0.5,0.1,0.8,0.5,1,1.3c0.1,0.3,0.2,0.6,0.5,0.8c0.3,0.3,0.6,0.5,1.1,0.5
		c0.4,0.1,0.9,0,1.2-0.3c0.4-0.3,0.6-0.6,0.7-1.1s0-0.8-0.1-1.1c-0.2-0.3-0.4-0.4-0.7-0.5c-0.3-0.1-0.6-0.2-0.8-0.3
		c-0.3-0.1-0.5-0.3-0.7-0.5s-0.2-0.5-0.1-0.9c0.1-0.6,0.5-1,1.1-1c0.3,0,0.5,0,0.8,0s0.5-0.1,0.7-0.3s0.3-0.4,0.4-0.8
		c0.1-0.4,0-0.7-0.2-0.9c-0.2-0.3-0.5-0.4-0.8-0.5c-0.4-0.1-0.7,0-1,0.1s-0.5,0.3-0.7,0.5c-0.1,0.2-0.3,0.4-0.6,0.5
		c-0.2,0.1-0.5,0.2-0.8,0.1c-0.3-0.1-0.5-0.2-0.7-0.5s-0.2-0.6-0.1-1c0.1-0.7,0.7-1.3,1.6-1.7C70.7,162.3,71.7,162.2,72.8,162.4z"/>
	<path class="st1" d="M77.6,174.9l0.9-6.9c0.1-0.4,0.2-0.7,0.5-0.9s0.6-0.3,0.9-0.2c0.8,0.1,1.2,0.5,1.1,1.2l0,0
		c0.6-0.7,1.2-0.9,1.9-0.8c0.3,0,0.6,0.2,0.8,0.5c0.2,0.3,0.3,0.6,0.2,1.1c0,0.2-0.1,0.4-0.2,0.5s-0.2,0.2-0.3,0.3
		c-0.1,0.1-0.3,0.1-0.6,0.2c-1.2,0.3-1.9,0.7-2.1,1.1c-0.1,0.2-0.2,0.4-0.2,0.6l-0.5,3.8c-0.1,0.4-0.2,0.8-0.5,1s-0.6,0.3-1,0.3
		s-0.7-0.2-0.9-0.5C77.6,175.7,77.5,175.3,77.6,174.9z"/>
	<path class="st1" d="M93.6,165.6l-0.9,10.8c0,0.4-0.2,0.8-0.4,1c-0.3,0.2-0.6,0.4-1,0.3c-0.7-0.1-1.1-0.4-1.2-1.2
		c-0.3,0.4-0.6,0.6-1.1,0.8s-0.9,0.2-1.4,0.2c-1.2-0.1-2.2-0.7-2.9-1.7c-0.7-1-1-2.2-0.9-3.4c0.1-1.3,0.6-2.5,1.4-3.4
		c0.8-1,1.9-1.4,3.1-1.3c0.9,0.1,1.7,0.4,2.4,1.1l0.3-3.4c0-0.4,0.2-0.8,0.4-1c0.3-0.2,0.6-0.4,0.9-0.3c0.4,0,0.7,0.2,0.9,0.5
		C93.6,164.8,93.6,165.1,93.6,165.6z M87,174.3c0.3,0.6,0.8,0.9,1.4,0.9c0.6,0.1,1.1-0.2,1.5-0.7s0.6-1.1,0.7-1.8
		c0-0.7-0.1-1.3-0.4-1.8s-0.8-0.8-1.4-0.9c-0.6,0-1.1,0.2-1.5,0.7s-0.6,1.1-0.7,1.8S86.6,173.8,87,174.3z"/>
	<path class="st1" d="M101.2,176.8l0.1-10c0-0.4,0.1-0.8,0.4-1c0.2-0.3,0.6-0.4,1-0.4h3.1c1.3,0,2.4,0.4,3.3,1.2s1.3,1.8,1.3,3.1
		s-0.4,2.3-1.3,3.1s-1.9,1.2-3.2,1.1h-2v2.9c0,0.4-0.1,0.8-0.4,1c-0.2,0.2-0.6,0.4-1,0.4s-0.7-0.1-1-0.4
		C101.3,177.6,101.2,177.2,101.2,176.8z M103.9,167.8v3.7h1.8c0.5,0,1-0.2,1.3-0.5c0.3-0.4,0.5-0.8,0.5-1.4c0-0.6-0.2-1-0.5-1.4
		s-0.8-0.5-1.3-0.6L103.9,167.8z"/>
	<path class="st1" d="M112,176.6l-0.3-9.9c0-0.4,0.1-0.8,0.3-1c0.2-0.3,0.6-0.4,1-0.4s0.7,0.1,1,0.3s0.4,0.6,0.4,1l0.3,8.9l3.2-0.1
		c0.4,0,0.8,0.1,1,0.4c0.2,0.3,0.3,0.6,0.3,0.9c0,0.3-0.1,0.6-0.3,0.9c-0.2,0.2-0.5,0.4-0.9,0.4l-4.3,0.1c-0.4,0-0.8-0.1-1-0.4
		C112.2,177.4,112,177,112,176.6z"/>
	<path class="st1" d="M123.3,165.1c0.3-0.3,0.7-0.5,1.1-0.5s0.8,0.1,1.2,0.3c0.4,0.2,0.6,0.6,0.8,1l4.1,9.4c0.1,0.2,0.2,0.5,0.2,0.8
		s-0.1,0.5-0.3,0.8c-0.2,0.2-0.5,0.4-0.8,0.4c-0.7,0.1-1.1-0.2-1.4-0.8l-0.7-1.6l-4.8,0.4l-0.4,1.7c-0.2,0.7-0.5,1-1.2,1
		c-0.4,0-0.7-0.1-1-0.3s-0.4-0.5-0.4-0.7c0-0.3,0-0.5,0.1-0.7l2.8-9.9C122.8,165.8,123,165.4,123.3,165.1z M124.7,167.3l-1.3,5.2
		l3.4-0.3L124.7,167.3L124.7,167.3z"/>
	<path class="st1" d="M131.7,170.5c-0.3-1.9,0.1-3.4,1-4.8c0.9-1.4,2.3-2.2,4-2.5c0.7-0.1,1.6-0.1,2.4,0.1c0.4,0.1,0.8,0.2,1.1,0.5
		c0.3,0.2,0.5,0.5,0.5,0.9c0,0.3,0,0.7-0.2,0.9c-0.2,0.3-0.4,0.4-0.6,0.4c-0.2,0-0.6,0-1.2-0.1c-0.6-0.1-1.1-0.2-1.7-0.1
		c-1,0.2-1.8,0.7-2.3,1.5c-0.5,0.9-0.6,1.9-0.5,3c0.2,1.1,0.6,2,1.3,2.7s1.6,0.9,2.6,0.8c0.5-0.1,1.1-0.3,1.6-0.6s0.9-0.5,1.1-0.5
		c0.3-0.1,0.6,0,0.9,0.3c0.3,0.2,0.4,0.5,0.5,0.9c0,0.3,0,0.7-0.3,1c-0.4,0.5-1.1,1-2.2,1.3c-0.4,0.1-0.8,0.2-1.2,0.3
		c-1.8,0.3-3.3-0.2-4.5-1.2C132.8,173.9,132,172.4,131.7,170.5z"/>
	<path class="st1" d="M144.9,173.5l-2.3-9.5c-0.1-0.5-0.1-0.8,0.1-1.2c0.2-0.3,0.5-0.6,0.9-0.7l4.2-1c0.4-0.1,0.7,0,1,0.1
		c0.3,0.2,0.4,0.4,0.5,0.8c0.1,0.3,0,0.6-0.1,0.9c-0.2,0.3-0.4,0.5-0.8,0.6l-3,0.7l0.6,2.6l2.8-0.7c0.4-0.1,0.7-0.1,1,0.1
		c0.3,0.2,0.5,0.4,0.5,0.8c0.1,0.3,0,0.6-0.1,0.9c-0.1,0.3-0.4,0.5-0.8,0.6l-2.8,0.7l0.6,2.7l3.2-0.8c0.4-0.1,0.7,0,1,0.1
		c0.3,0.2,0.4,0.4,0.5,0.8c0.1,0.3,0,0.6-0.1,0.9c-0.2,0.3-0.4,0.5-0.8,0.6l-4.4,1.1c-0.4,0.1-0.7,0-1-0.1
		C145.2,174.1,145,173.9,144.9,173.5z"/>
</g>
</svg>
